<?xml version="1.0" standalone="no"?>
<!DOCTYPE svg PUBLIC "-//W3C//DTD SVG 1.1//EN" "http://www.w3.org/Graphics/SVG/1.1/DTD/svg11.dtd" >
<svg xmlns="http://www.w3.org/2000/svg">
<metadata>Generated by IcoMoon</metadata>
<defs>
<font id="icomoon" horiz-adv-x="1024">
<font-face units-per-em="1024" ascent="960" descent="-64" />
<missing-glyph horiz-adv-x="1024" />
<glyph unicode="&#x20;" horiz-adv-x="512" d="" />
<glyph unicode="&#xe01b;" glyph-name="focus" horiz-adv-x="1344" d="M272 960h-224c-26.464 0-48-21.536-48-48v-192c0-8.832 7.168-16 16-16s16 7.168 16 16v192c0 8.832 7.2 16 16 16h224c8.832 0 16 7.168 16 16s-7.168 16-16 16zM1296 960h-224c-8.832 0-16-7.168-16-16s7.168-16 16-16h224c8.8 0 16-7.168 16-16v-192c0-8.832 7.168-16 16-16s16 7.168 16 16v192c0 26.464-21.536 48-48 48zM1328 192c-8.832 0-16-7.168-16-16v-192c0-8.832-7.2-16-16-16h-224c-8.832 0-16-7.168-16-16s7.168-16 16-16h224c26.464 0 48 21.536 48 48v192c0 8.832-7.168 16-16 16zM16 192c-8.832 0-16-7.168-16-16v-192c0-26.464 21.536-48 48-48h224c8.832 0 16 7.168 16 16s-7.168 16-16 16h-224c-8.8 0-16 7.168-16 16v192c0 8.832-7.168 16-16 16zM752 352c8.832 0 16 7.168 16 16v160c0 8.832-7.168 16-16 16h-160c-8.832 0-16-7.168-16-16v-160c0-8.832 7.168-16 16-16h160zM608 512h128v-128h-128v128z" />
<glyph unicode="&#xe01d;" glyph-name="adjustments" horiz-adv-x="1056" d="M992 960h-928c-26.304 0-64-37.696-64-64v-896c0-26.304 37.696-64 64-64h928c26.304 0 64 37.696 64 64v896c0 26.304-37.696 64-64 64zM1024 0c-0.192-9.088-22.912-31.808-32-32h-928c-9.088 0.192-31.808 22.912-32 32v896c0.192 9.088 22.912 31.808 32 32h928c9.088-0.192 31.808-22.912 32-32v-896zM528 784c-35.296 0-64-28.704-64-64s28.704-64 64-64 64 28.704 64 64-28.704 64-64 64zM528 688c-17.632 0-32 14.368-32 32s14.368 32 32 32 32-14.368 32-32-14.368-32-32-32zM784 272c-35.296 0-64-28.704-64-64s28.704-64 64-64 64 28.704 64 64-28.704 64-64 64zM784 176c-17.632 0-32 14.368-32 32s14.368 32 32 32 32-14.368 32-32-14.368-32-32-32zM272 432c-35.296 0-64-28.704-64-64s28.704-64 64-64 64 28.704 64 64-28.704 64-64 64zM272 336c-17.632 0-32 14.368-32 32s14.368 32 32 32 32-14.368 32-32-14.368-32-32-32zM272 480c8.832 0 16 7.168 16 16v288c0 8.832-7.168 16-16 16s-16-7.168-16-16v-288c0-8.832 7.168-16 16-16zM272 256c-8.832 0-16-7.168-16-16v-96c0-8.832 7.168-16 16-16s16 7.168 16 16v96c0 8.832-7.168 16-16 16zM528 608c-8.832 0-16-7.168-16-16v-448c0-8.832 7.168-16 16-16s16 7.168 16 16v448c0 8.832-7.168 16-16 16zM784 320c8.832 0 16 7.168 16 16v448c0 8.832-7.168 16-16 16s-16-7.168-16-16v-448c0-8.832 7.168-16 16-16z" />
<glyph unicode="&#xe02b;" glyph-name="gears" horiz-adv-x="1344" d="M118.144 264.96c5.632-1.344 13.28-8.288 15.488-14.624l11.2-27.008c2.528-5.184 2.048-15.456-0.96-20.384l-44.704-73.088c-9.568-15.68-7.584-37.888 5.28-52.288l37.856-37.824c13.184-11.712 36.448-13.824 51.616-4.64l73.088 44.704c4.576 2.816 14.4 3.808 21.28 0.576l26.976-11.136c5.44-1.888 12.384-9.504 13.728-15.136l20.064-83.328c4.256-17.664 21.12-32.192 39.232-33.856 0 0 11.104-1.024 27.744-1.024s27.744 1.024 27.776 1.024c18.080 1.632 34.944 16.192 39.2 33.856l20.096 83.328c1.344 5.6 8.256 13.248 14.592 15.456l27.008 11.2c4.768 2.336 15.808 1.856 20.384-0.96l73.088-44.704c6.432-3.936 14.112-6.016 22.272-6.016 11.040 0 21.728 3.872 30.016 11.264l37.824 37.856c12.224 13.728 14.208 35.936 4.64 51.616l-44.704 73.088c-3.008 4.928-3.488 15.2-0.576 21.28l11.136 26.976c1.888 5.44 9.504 12.384 15.136 13.728l83.328 20.064c17.664 4.256 32.192 21.12 33.856 39.232 0 0 1.024 11.104 1.024 27.744s-1.024 27.744-1.024 27.776c-1.632 18.080-16.192 34.944-33.856 39.232l-83.296 20.032c-5.632 1.344-13.28 8.288-15.488 14.624l-11.2 27.008c-2.528 5.184-2.048 15.456 0.96 20.384l44.704 73.088c9.568 15.68 7.584 37.888-5.28 52.288l-37.856 37.824c-13.216 11.744-36.512 13.856-51.616 4.64l-73.088-44.704c-4.576-2.784-14.432-3.84-21.28-0.576l-26.976 11.136c-5.44 1.888-12.352 9.504-13.696 15.136l-20.096 83.328c-4.256 17.664-21.12 32.192-39.232 33.856-0.064-0.032-11.168 0.992-27.808 0.992s-27.744-1.024-27.776-1.024c-18.080-1.632-34.944-16.192-39.232-33.856l-20.032-83.264c-1.344-5.632-8.288-13.28-14.624-15.488l-27.008-11.2c-4.8-2.336-15.808-1.824-20.384 0.96l-73.056 44.704c-15.136 9.216-37.92 7.616-52.288-5.248l-37.824-37.856c-12.224-13.728-14.208-35.936-4.64-51.616l44.704-73.088c3.008-4.928 3.488-15.2 0.576-21.28l-11.136-26.976c-1.888-5.44-9.504-12.384-15.136-13.728l-83.328-20.064c-17.664-4.256-32.192-21.12-33.856-39.232 0.064 0-0.96-11.104-0.96-27.744s1.024-27.744 1.024-27.776c1.632-18.080 16.192-34.944 33.856-39.232l83.264-20.032zM32 352c0 14.656 0.864 24.544 0.896 24.864 0.384 4.32 5.28 9.984 9.472 11.008l83.328 20.064c16.16 3.904 32.448 18.688 37.504 33.504l10.368 25.184c7.296 14.944 6.272 36.896-2.4 51.104l-44.704 73.056c-2.144 3.552-1.536 10.592 0.576 12.992l36.512 36.544c2.912 2.592 10.336 3.232 13.664 1.216l73.088-44.704c13.856-8.48 37.6-9.056 50.176-2.816l25.216 10.432c15.712 5.408 30.496 21.696 34.4 37.888l20.032 83.296c1.024 4.224 6.688 9.12 11.008 9.504 0.32 0 10.208 0.864 24.864 0.864s24.544-0.864 24.864-0.896c4.32-0.384 9.984-5.28 11.008-9.472l20.064-83.296c3.904-16.16 18.656-32.48 33.504-37.536l25.184-10.368c14.624-7.168 37.28-6.048 51.104 2.4l73.056 44.704c3.328 2.016 11.2 0.96 12.992-0.576l36.544-36.512c2.752-3.104 3.36-10.112 1.216-13.664l-44.704-73.088c-8.672-14.176-9.696-36.16-2.816-50.176l10.432-25.216c5.408-15.712 21.696-30.496 37.888-34.4l83.296-20.032c4.224-1.024 9.12-6.688 9.504-11.008 0-0.32 0.864-10.208 0.864-24.864s-0.864-24.544-0.896-24.864c-0.384-4.32-5.28-9.984-9.472-11.008l-83.328-20.064c-16.16-3.904-32.448-18.688-37.504-33.504l-10.368-25.184c-7.296-14.944-6.272-36.896 2.4-51.104l44.704-73.056c2.144-3.552 1.536-10.592-0.576-12.992l-36.512-36.544c-1.728-1.536-4.864-2.528-8.032-2.528-2.208 0-4.256 0.48-5.6 1.312l-73.088 44.704c-13.824 8.448-37.568 9.056-50.176 2.816l-25.216-10.432c-15.712-5.408-30.496-21.728-34.368-37.888l-20.064-83.296c-1.024-4.224-6.688-9.12-11.008-9.504-0.352 0-10.24-0.864-24.896-0.864s-24.544 0.864-24.864 0.896c-4.32 0.384-9.984 5.28-11.008 9.472l-20.064 83.328c-3.904 16.16-18.688 32.448-33.504 37.504l-25.184 10.368c-6.528 3.2-14.432 4.864-22.88 4.864-10.528 0-20.544-2.592-28.224-7.296l-73.056-44.704c-3.328-2.016-11.232-0.928-12.992 0.576l-36.544 36.544c-2.752 3.104-3.36 10.112-1.216 13.664l44.704 73.088c8.672 14.176 9.696 36.16 2.816 50.176l-10.432 25.216c-5.408 15.712-21.696 30.496-37.888 34.4l-83.296 20.032c-4.224 1.024-9.12 6.688-9.504 11.008 0 0.32-0.864 10.208-0.864 24.864zM416 176c97.056 0 176 78.944 176 176s-78.944 176-176 176-176-78.944-176-176 78.944-176 176-176zM416 496c79.392 0 144-64.608 144-144s-64.608-144-144-144-144 64.608-144 144 64.608 144 144 144zM879.264 789.952c-1.28-1.952-5.92-4.416-8.288-4.416l-59.552 0.576c-14.464 0-28.96-10.272-33.696-23.872 0 0-2.624-7.456-5.504-18.88s-4.096-19.232-4.096-19.232c-2.24-14.432 5.792-30.4 18.688-37.152l52.512-27.52c2.016-1.056 4.992-5.504 5.312-8.736l2.976-20.32c0.48-2.24-1.056-7.36-2.688-8.96l-42.304-41.472c-10.592-10.368-13.376-28.096-6.080-42.016l19.168-32c8.096-11.904 25.632-17.984 39.392-13.696l58.368 17.856c3.168 0 6.336-1.216 8.128-2.656l16.48-12.16c1.92-1.28 4.448-5.984 4.416-8.288l-0.576-59.264c-0.128-14.592 10.112-29.216 23.872-34.016 0 0 7.456-2.624 18.88-5.504s19.232-4.096 19.232-4.096c0.832-0.128 4.16-0.384 4.992-0.384 13.056 0 26.304 7.84 32.16 19.072l27.52 52.512c1.056 2.016 5.504 4.992 8.736 5.312l21.216 3.072c3.2 0 6.976-1.664 8.032-2.752l41.472-42.304c10.080-10.304 27.072-13.984 42.016-6.080l31.968 19.168c12.224 8.32 18.144 25.28 13.728 39.392l-17.664 56.544c-0.672 2.176 0.384 7.424 2.496 9.952l12.16 16.48c1.28 1.952 5.92 4.416 8.288 4.416l59.552-0.576c14.464 0 28.96 10.272 33.696 23.872 0 0 2.624 7.456 5.504 18.88s4.096 19.232 4.096 19.232c2.24 14.432-5.792 30.4-18.688 37.152l-52.512 27.52c-2.016 1.056-4.992 5.504-5.312 8.736l-2.944 20.256c-0.48 2.24 1.056 7.36 2.688 8.96l42.304 41.472c10.592 10.368 13.376 28.096 6.080 42.016l-19.168 32c-8.096 11.872-25.6 18.016-39.392 13.728l-58.4-17.856c-3.168 0-6.336 1.216-8.128 2.656l-16.48 12.16c-1.92 1.28-4.448 5.984-4.416 8.288l0.576 59.264c0.128 14.592-10.112 29.216-23.872 34.016 0 0-7.456 2.624-18.88 5.504s-19.232 4.096-19.232 4.096c-0.832 0.096-4.16 0.352-4.992 0.352-13.056 0-26.304-7.84-32.16-19.072l-27.52-52.512c-1.056-2.016-5.504-4.992-8.736-5.312l-21.216-3.040c-3.2 0-6.976 1.664-8.032 2.752l-41.472 42.304c-10.048 10.272-27.008 13.984-42.016 6.080l-32-19.136c-12.224-8.32-18.144-25.28-13.728-39.392l17.664-56.544c0.672-2.176-0.384-7.424-2.496-9.952l-12.128-16.48zM905.504 771.648l10.976 14.912c8.576 10.144 11.904 26.688 7.936 39.328l-17.632 56.512c-0.16 0.896 0.544 2.912 0.384 2.944l30.336 18.176 3.616-0.544 41.504-42.304c7.36-7.488 19.488-12.352 30.88-12.352 2.624 0 5.152 0.256 6.528 0.608l18.4 2.72c13.184 1.152 27.232 10.496 33.376 22.208l27.488 52.48c0.512 0.8 2.528 1.952 3.84 1.952 0.352-0.032 6.88-1.12 16.416-3.488 9.504-2.4 15.776-4.544 16.064-4.672 0.992-0.416 2.432-2.496 2.496-3.52l-0.576-59.264c-0.128-13.248 7.84-28.128 18.144-34.848l14.88-10.976c9.888-8.352 26.848-11.872 39.328-7.936l56.768 17.664c1.344 0 2.848-0.832 2.656-0.416l18.176-30.336c0.352-0.832 0-2.944-0.544-3.616l-42.304-41.504c-9.44-9.312-14.336-25.44-11.744-37.408l2.688-18.4c1.152-13.184 10.496-27.232 22.24-33.376l52.48-27.488c0.896-0.576 2.016-2.816 1.952-3.84-0.032-0.352-1.12-6.88-3.488-16.416-2.4-9.504-4.544-15.776-4.672-16.064-0.416-0.992-2.496-2.432-3.52-2.496l-59.584 0.576c-13.152 0-27.872-7.968-34.528-18.144l-10.944-14.88c-8.576-10.144-11.904-26.688-7.936-39.328l17.632-56.512c0.16-0.864-0.544-2.912-0.384-2.944l-30.336-18.176-3.616 0.544-41.504 42.304c-7.36 7.488-19.488 12.352-30.88 12.352-2.624 0-5.152-0.256-6.528-0.608l-18.4-2.72c-13.184-1.152-27.232-10.496-33.376-22.208l-27.488-52.48c-0.512-0.8-2.528-1.952-3.84-1.952v0c-0.352 0.032-6.88 1.12-16.416 3.488-9.504 2.4-15.776 4.544-16.064 4.672-0.992 0.416-2.432 2.496-2.496 3.52l0.576 59.264c0.128 13.248-7.84 28.128-18.144 34.848l-14.88 10.976c-7.104 6.016-17.568 9.6-28 9.6-4.032 0-7.872-0.576-11.36-1.664l-56.768-17.664c-1.376 0-2.88 0.736-2.656 0.416l-18.176 30.336c-0.352 0.832 0 2.944 0.544 3.616l42.304 41.504c9.44 9.312 14.336 25.44 11.744 37.408l-2.688 18.368c-1.152 13.184-10.496 27.232-22.24 33.376l-52.48 27.488c-0.896 0.576-2.016 2.816-1.952 3.84 0.032 0.352 1.12 6.88 3.488 16.416 2.4 9.504 4.544 15.776 4.672 16.064 0.416 0.992 2.496 2.432 3.52 2.496l59.584-0.576c13.152 0 27.872 7.968 34.528 18.144zM1056 576c52.928 0 96 43.072 96 96s-43.072 96-96 96-96-43.072-96-96 43.072-96 96-96zM1056 736c35.296 0 64-28.704 64-64s-28.704-64-64-64-64 28.704-64 64 28.704 64 64 64z" />
<glyph unicode="&#xe031;" glyph-name="layers2" d="M984.48 727.616l-369.376 208.48c-50.272 28.384-136.672 28.416-187.040 0l-369.376-208.48c-28.256-15.968-43.776-38.304-43.776-62.944s15.552-46.976 43.776-62.912l369.376-208.512c25.152-14.208 58.368-22.016 93.504-22.016 35.168 0 68.384 7.84 93.536 22.016l369.376 208.512c28.256 15.936 43.808 38.272 43.808 62.912s-15.584 46.976-43.808 62.944zM967.648 631.52l-369.376-208.512c-39.616-22.368-113.792-22.4-153.408 0l-369.376 208.512c-16.768 9.472-26.368 21.568-26.368 33.152 0 11.616 9.6 23.68 26.368 33.184l369.376 208.512c19.808 11.2 47.776 17.6 76.672 17.6 28.928 0 56.896-6.432 76.704-17.6l369.376-208.512c16.768-9.472 26.4-21.568 26.4-33.184 0.032-11.584-9.568-23.68-26.368-33.152zM984.48 508.832c-8.192 4.64-18.624 1.76-23.328-6.496-4.64-8.224-1.728-18.656 6.496-23.296 16.768-9.472 26.4-21.568 26.4-33.152s-9.632-23.68-26.4-33.152l-369.376-208.512c-41.536-23.456-111.808-23.488-153.408 0l-369.376 208.512c-16.768 9.472-26.368 21.568-26.368 33.152s9.6 23.68 26.368 33.152c8.224 4.64 11.136 15.072 6.496 23.296-4.672 8.256-15.136 11.168-23.328 6.496-28.256-15.936-43.776-38.304-43.776-62.944s15.52-47.008 43.776-62.944l369.376-208.512c26.208-14.784 59.872-22.208 93.504-22.208 33.664 0 67.328 7.392 93.536 22.208l369.376 208.512c28.256 15.936 43.808 38.304 43.808 62.944s-15.552 47.008-43.776 62.944zM984.48 294.272c-8.192 4.64-18.624 1.76-23.328-6.496-4.64-8.224-1.728-18.656 6.496-23.296 16.768-9.472 26.4-21.568 26.4-33.152s-9.632-23.68-26.4-33.184l-369.376-208.512c-41.536-23.456-111.808-23.488-153.408 0l-369.376 208.544c-16.768 9.472-26.368 21.568-26.368 33.184 0 11.584 9.6 23.68 26.368 33.152 8.224 4.64 11.136 15.072 6.496 23.296-4.672 8.224-15.136 11.168-23.328 6.496-28.192-15.968-43.744-38.304-43.744-62.976s15.52-47.008 43.776-62.944l369.376-208.512c26.208-14.784 59.872-22.208 93.504-22.208 33.664 0 67.328 7.392 93.536 22.208l369.376 208.512c28.256 15.968 43.808 38.304 43.808 62.944s-15.584 47.008-43.808 62.944z" />
<glyph unicode="&#xe032;" glyph-name="pencil" d="M0-47.328c0-8.832 7.168-16 16-16h995.552c2.144 0 4.224 0.416 6.176 1.248s3.712 2.016 5.184 3.488c0.032 0.032 0.064 0.032 0.096 0.064 0.096 0.096 0.096 0.288 0.224 0.384 1.632 1.76 2.688 3.904 3.424 6.24 0.224 0.736 0.32 1.44 0.448 2.208 0.128 0.8 0.48 1.504 0.48 2.336 0 1.28-0.448 2.4-0.736 3.584-0.096 0.448 0.096 0.896-0.064 1.344l-101.12 310.88c-0.768 2.4-2.112 4.608-3.904 6.368l-547.744 547.776c-0.576 0.896-0.992 1.856-1.76 2.656l-119.648 119.648c-19.424 19.424-51.040 19.424-70.496 0l-167.52-167.52c-9.408-9.408-14.592-21.92-14.592-35.232s5.184-25.856 14.592-35.264l116.992-116.992c0.576-0.864 0.96-1.856 1.728-2.624l546.88-550.56c1.888-1.92 4.192-3.296 6.784-4.064l214.816-64h-885.792c-8.832 0.032-16-7.136-16-15.968zM203.584 634.848l501.984-495.552-18.464-64.064-519.84 523.296 36.32 36.32zM730.112 160l-503.936 497.44 77.984 77.984 499.424-500.736v-74.688h-73.472zM823.52 260l-496.736 498.048 33.248 33.248 518.752-518.752-55.264-12.544zM735.616 128h83.968c8.832 0 16 7.168 16 16v85.92l64.224 14.592 87.136-267.84-271.616 80.928 20.288 70.4zM32 742.144c0 4.768 1.856 9.216 5.216 12.608l167.52 167.52c6.944 6.944 18.24 6.976 25.248 0l107.904-107.904-192.736-192.736-107.904 107.904c-3.392 3.36-5.248 7.84-5.248 12.608z" />
<glyph unicode="&#xe033;" glyph-name="tools" horiz-adv-x="992" d="M6.752 779.328c-27.104-27.136-21.312-65.344 0.256-86.88 0.864-0.832 87.488-83.584 209.312-205.408 3.136-3.136 7.232-4.672 11.328-4.672s8.192 1.568 11.328 4.672c6.24 6.24 6.24 16.384 0 22.624-18.368 18.368-35.84 35.744-52.416 52.192l50.848 50.848c6.24 6.24 6.24 16.384 0 22.624s-16.384 6.24-22.624 0l-50.976-50.976c-28.512 28.16-53.632 52.736-74.080 72.672l115.68 115.68c6.24 6.24 6.24 16.384 0 22.624s-16.384 6.24-22.624 0l-116.032-116.032c-23.552 22.816-37.12 35.776-37.344 36-6.752 6.752-15.616 25.76 0 41.376l160 160c6.176 6.272 22.624 18.72 40.672 0.768 0.8-0.896 81.6-92.672 204.928-216 6.24-6.24 16.384-6.24 22.624 0s6.24 16.384 0 22.624c-122.56 122.528-202.752 213.6-204.224 215.264-29.824 29.76-65.792 20.832-86.624 0l-160.032-160zM685.408 187.328c-6.24 6.24-16.384 6.24-22.624 0l-50.912-50.88c-15.52 15.712-31.808 32.16-48.96 49.312-6.24 6.24-16.384 6.24-22.624 0s-6.24-16.384 0-22.624c118.528-118.496 201.312-207.008 202.496-208.288 10.976-11.008 26.016-17.056 42.336-17.056v0c16.8 0 33.792 6.56 44.32 17.12l159.936 161.824c20.128 20.128 21.28 54.272 2.496 73.12l-214.592 214.56c-6.24 6.24-16.384 6.24-22.624 0s-6.24-16.384 0-22.624l214.592-214.56c6.4-6.4 5.184-20.224-2.528-27.936l-159.968-161.824c-3.68-3.712-12.032-7.68-21.632-7.68 0 0 0 0 0 0-5.504 0-13.376 1.344-19.328 7.328-0.32 0.352-13.728 14.656-36.992 39.008l116.608 116.608c6.24 6.24 6.24 16.384 0 22.624s-16.384 6.24-22.624 0l-116.128-116.128c-19.968 20.768-44.448 46.016-72.32 74.432l51.072 51.072c6.24 6.208 6.24 16.32 0 22.592zM-9.376-58.528c3.072-3.136 7.2-4.8 11.456-4.8 1.536 0 3.072 0.224 4.576 0.672l320 95.328c2.592 0.768 4.896 2.144 6.784 4.064l546.88 550.56c0.768 0.768 1.152 1.76 1.728 2.624l116.992 116.992c9.408 9.44 14.624 21.952 14.624 35.296 0 13.312-5.216 25.824-14.624 35.2l-167.52 167.488c-18.816 18.816-51.68 18.816-70.496 0l-119.648-119.648c-0.768-0.768-1.184-1.76-1.76-2.656l-547.712-547.744c-1.792-1.792-3.136-3.968-3.904-6.368l-101.12-310.88c-1.856-5.664-0.416-11.84 3.744-16.128zM653.6 791.328l33.248-33.248-496.736-498.080-55.264 12.544 518.752 518.784zM210.080 234.688l499.424 500.736 77.952-77.952-503.936-497.472h-73.44v74.688zM846.368 598.528l-519.808-523.328-18.464 64.064 501.984 495.584 36.288-36.32zM113.856 244.512l64.224-14.592v-85.92c0-8.832 7.168-16 16-16h83.968l20.288-70.4-271.616-80.928 87.136 267.84zM783.68 922.272c6.752 6.752 18.496 6.752 25.248 0l167.52-167.52c3.36-3.36 5.216-7.84 5.216-12.608 0-4.736-1.856-9.248-5.248-12.64l-107.872-107.904-192.736 192.736 107.872 107.936z" />
<glyph unicode="&#xe034;" glyph-name="tools-2" d="M907.328 916.672c3.68 3.68 5.344 8.928 4.448 14.048s-4.224 9.504-8.96 11.712c-73.312 34.56-160.32 19.392-217.536-38.112-54.336-54.688-73.312-140.576-47.968-212.384l-369.248-369.248c-20.064 7.168-41.504 10.752-63.872 10.752-54.848 0-108.032-21.824-145.888-59.904-57.024-57.344-73.088-142.080-40.992-215.904 2.112-4.864 6.496-8.384 11.712-9.344 5.248-0.992 10.592 0.672 14.304 4.448l111.712 112.288c7.36 7.424 19.232 8.416 25.376 2.176l48.224-50.464c7.008-7.072 6.688-17.984-0.704-25.44l-111.296-112c-3.68-3.68-5.312-8.928-4.416-14.048s4.224-9.472 8.928-11.68c26.528-12.512 54.432-18.816 82.912-18.816 50.304 0 98.080 20.224 134.624 56.96 54.336 54.656 73.312 140.544 47.936 212.352l369.248 369.28c20.096-7.168 41.536-10.752 63.904-10.752 54.848 0 108.032 21.824 145.888 59.904 57.024 57.344 73.088 142.080 40.992 215.904-2.112 4.864-6.496 8.384-11.712 9.344-5.152 0.896-10.56-0.672-14.304-4.448l-111.712-112.288c-6.88-6.912-18.56-6.848-25.632 0.32l-47.968 47.968c-7.232 7.264-7.2 18.176-0.032 25.408l112.032 111.968zM772.672 756.672l47.968-47.968c19.168-19.264 52-19.36 70.976-0.288l93.76 94.208c15.008-55.712-0.512-115.488-42.368-157.632-31.904-32.096-76.768-50.464-123.2-50.464-21.856 0-42.56 4.096-61.536 12.16-6.016 2.592-12.96 1.184-17.568-3.392l-384-384c-4.608-4.608-5.952-11.52-3.424-17.504 25.696-61.12 10.048-140-37.216-187.552-42.272-42.496-103.808-57.632-159.52-40.256l94.112 94.72c19.872 20 20.192 51.008 0.928 70.336l-48.192 50.464c-18.592 18.72-51.648 17.568-70.976-1.984l-93.76-94.208c-15.008 55.712 0.512 115.488 42.368 157.632 31.904 32.096 76.768 50.464 123.2 50.464 21.856 0 42.56-4.096 61.536-12.16 5.984-2.624 12.96-1.184 17.568 3.392l384 384c4.608 4.608 5.952 11.52 3.424 17.504-25.696 61.12-10.048 140.032 37.216 187.584 42.24 42.496 103.744 57.536 159.424 40.256l-94.72-94.752c-19.712-19.744-19.712-50.72 0-70.56zM934.72-20.704c-7.072-7.104-19.328-7.104-26.464 0.064l-320.96 320c-6.24 6.176-16.384 6.208-22.624-0.064-6.24-6.24-6.208-16.384 0.032-22.624l320.928-319.936c9.6-9.632 22.336-14.944 35.904-14.944 0 0 0 0 0 0 13.568 0 26.304 5.312 36.096 15.168l45.728 47.776c19.68 19.776 19.68 50.784-0.032 70.592l-320 320c-6.24 6.24-16.384 6.24-22.624 0s-6.24-16.384 0-22.624l319.968-319.968c7.328-7.36 7.328-18.048-0.224-25.664l-45.728-47.776zM187.328 859.328l-96 96c-6.24 6.24-16.384 6.24-22.624 0l-64-64c-6.24-6.24-6.24-16.384 0-22.624l96-96c3.104-3.136 7.2-4.704 11.296-4.704s8.192 1.568 11.328 4.672l20.672 20.704 244.672-244.672c3.136-3.136 7.232-4.704 11.328-4.704s8.192 1.568 11.328 4.672c6.24 6.24 6.24 16.384 0 22.624l-244.704 244.704 20.672 20.672c6.272 6.272 6.272 16.384 0.032 22.656zM112 806.624l-73.376 73.376 41.376 41.376 73.376-73.376-41.376-41.376z" />
<glyph unicode="&#xe036;" glyph-name="paintbrush" horiz-adv-x="704" d="M492.896 288h146.56c33.696 0 61.088 27.392 64.544 61.088v549.824c-3.456 33.696-30.848 61.088-64.544 61.088h-574.912c-33.696 0-61.088-27.392-64.544-61.088v-549.824c3.456-33.696 30.848-61.088 64.544-61.088h158.784c11.136 0 66.656-2.368 66.656-49.344 0-83.904-17.696-122.944-24.384-137.664l-1.568-3.488 12.896-5.568v-0.416l-14.304 2.88c-0.544-1.056-0.96-2.176-1.216-3.328-4.928-13.152-7.424-26.656-7.424-40.224 0.032-68.704 39.392-114.848 98.016-114.848 59.232 0 99.008 46.144 99.008 114.848 0 12.512-2.112 24.96-6.336 37.152-0.16 3.648-1.568 7.040-3.808 9.664-0.832 1.92-1.92 4-3.232 6.464-7.008 13.28-21.632 40.864-21.632 134.528 0 19.84 20.48 49.344 76.896 49.344zM32 574.112h640v-126.112h-640v126.112zM64.544 928h574.912c16.032 0 29.088-13.056 32.544-29.088v-292.768h-640v292.768c3.456 16.032 16.512 29.088 32.544 29.088zM409.344 89.152c0.896-1.696 1.664-3.104 2.976-6.048 0-0.032 0.096-0.224 0.224-0.512 0.128-0.416 0.256-0.8 0.416-1.216 4-10.016 6.016-20.32 6.016-30.528 0.032-40.064-17.568-82.848-66.976-82.848-48.672 0-65.984 42.784-65.984 82.848 0 10.208 2.016 20.512 6.016 30.528 0.128 0.384 0.288 0.736 0.384 1.12 0.448 0.96 0.992 2.176 1.056 2.304l1.344 2.976c7.424 16.448 27.232 60.032 27.232 150.88-0.064 64.224-62.048 81.344-99.648 81.344 0 0 0 0-0.032 0h-157.824c-16.032 0-29.088 13.056-32.544 29.088v66.912h640v-66.912c-3.456-16.032-16.512-29.088-32.544-29.088h-146.56c-79.904 0-108.896-48.672-108.896-81.344 0-101.6 17.12-133.984 25.344-149.504z" />
<glyph unicode="&#xe039;" glyph-name="linegraph" horiz-adv-x="1344" d="M1248 960c-52.928 0-96-43.072-96-96 0-28.416 12.672-53.728 32.352-71.328l-281.6-448.992c-11.872 5.28-24.96 8.32-38.752 8.32-27.776 0-52.608-12.032-70.176-30.944l-290.336 183.84c5.376 11.968 8.512 25.152 8.512 39.104 0 52.928-43.072 96-96 96s-96-43.072-96-96c0-28.928 13.12-54.592 33.408-72.192l-220.64-351.2c-11.328 4.736-23.744 7.392-36.768 7.392-52.928 0-96-43.072-96-96s43.072-96 96-96 96 43.072 96 96c0 28.416-12.64 53.696-32.32 71.296l220.928 351.68c10.976-4.416 22.88-6.976 35.392-6.976 27.488 0 52.128 11.744 69.632 30.304l290.496-183.936c-5.152-11.776-8.128-24.704-8.128-38.368 0-52.928 43.072-96 96-96s96 43.072 96 96c0 27.616-11.872 52.352-30.624 69.888l281.92 449.472c11.328-4.704 23.712-7.36 36.704-7.36 52.928 0 96 43.072 96 96s-43.072 96-96 96zM160 32c0-35.296-28.704-64-64-64s-64 28.704-64 64 28.704 64 64 64 64-28.704 64-64zM416 480c-35.296 0-64 28.704-64 64s28.704 64 64 64 64-28.704 64-64-28.704-64-64-64zM864 192c-35.296 0-64 28.704-64 64s28.704 64 64 64 64-28.704 64-64-28.704-64-64-64zM1248 800c-35.296 0-64 28.704-64 64s28.704 64 64 64 64-28.704 64-64-28.704-64-64-64z" />
<glyph unicode="&#xe900;" glyph-name="write" d="M832 512c-11.776 0-21.333-9.557-21.333-21.333v-512h-768v853.333h661.333c11.776 0 21.333 9.557 21.333 21.333s-9.557 21.333-21.333 21.333h-682.667c-11.776 0-21.333-9.557-21.333-21.333v-896c0-11.776 9.557-21.333 21.333-21.333h810.667c11.776 0 21.333 9.557 21.333 21.333v533.333c0 11.776-9.557 21.333-21.333 21.333zM1019.221 918.4c-16.896 40.747-72.576 54.827-105.088 22.272l-407.296-407.253c-1.621-1.621-2.987-3.499-4.011-5.547l-60.331-120.747c-4.096-8.235-2.517-18.133 4.011-24.619 4.096-4.096 9.557-6.229 15.104-6.229 3.243 0 6.485 0.725 9.557 2.261l120.661 60.331c2.048 1.024 3.925 2.389 5.547 4.011l407.339 407.339c18.901 18.901 24.363 44.416 14.507 68.181zM569.6 475.477l-60.373-30.208 30.208 60.416 329.429 329.429 30.165-30.208-329.429-329.429zM974.507 880.341l-45.269-45.269-30.165 30.208 45.227 45.227c12.203 12.245 29.824 5.419 35.541-8.448 3.157-7.723 1.365-15.019-5.333-21.717z" />
<glyph unicode="&#xe901;" glyph-name="wrenches" d="M767.659 309.845l-134.997 134.997 134.997 134.997c67.883-22.955 145.877-4.992 196.992 46.165 55.851 55.808 71.509 135.296 40.917 207.488-2.773 6.571-8.747 11.349-15.787 12.629-7.125 1.408-14.251-0.981-19.243-6.187l-75.349-78.293h-60.075v66.688l75.477 75.435c5.035 4.992 7.211 12.203 5.845 19.157s-6.101 12.8-12.629 15.573c-70.912 29.952-156.16 13.611-210.731-41.003-52.053-52.096-69.419-128.043-46.208-196.992l-134.869-134.955-134.997 134.955c23.296 68.992 5.888 144.896-46.165 196.992-55.808 55.851-135.339 71.509-207.488 40.96-6.613-2.773-11.349-8.704-12.672-15.744-1.28-7.040 1.024-14.293 6.187-19.243l78.293-75.392v-66.432h-66.389l-75.392 78.336c-4.992 5.163-12.203 7.595-19.243 6.144-7.083-1.28-12.971-6.059-15.787-12.629-30.336-71.723-14.293-153.771 40.96-209.067 51.797-51.797 127.787-68.864 197.035-45.44l134.784-134.315-134.784-134.827c-67.755 22.912-145.877 4.992-196.992-46.165-55.509-55.552-71.595-138.24-40.96-210.645 2.773-6.528 8.619-11.307 15.573-12.672 6.955-1.28 14.165 0.896 19.157 5.888l75.435 75.435h66.645v-60.075l-78.293-75.392c-5.163-4.992-7.509-12.203-6.187-19.243 1.323-7.083 6.101-13.013 12.672-15.787 23.808-10.027 48.896-15.104 74.539-15.104 50.517 0 98.261 19.925 134.485 56.107 51.541 51.413 68.352 127.403 44.629 196.992l134.955 134.997 134.997-134.997c-23.296-69.035-5.931-144.981 46.165-196.992 36.779-36.821 85.589-56.277 135.424-56.277 25.301 0 50.859 4.992 75.264 15.275 6.528 2.773 11.307 8.619 12.629 15.573s-0.853 14.165-5.845 19.157l-75.477 75.435v60.331h60.331l75.435-75.435c5.035-4.992 12.245-7.168 19.157-5.888 6.955 1.365 12.8 6.144 15.573 12.672 30.635 72.363 14.549 155.093-40.96 210.645-52.096 52.096-128.043 69.504-197.035 46.165zM276.736 618.965c-6.187 6.059-15.403 7.936-23.381 4.523-56.747-23.979-121.003-11.776-163.84 31.104-34.645 34.645-49.493 82.859-41.515 129.408l56.277-58.453c4.011-4.181 9.6-6.528 15.36-6.528h96.853c11.776 0 21.333 9.557 21.333 21.333v96.853c0 5.803-2.347 11.349-6.528 15.36l-58.539 56.363c46.037 7.851 92.971-6.571 127.915-41.6 43.179-43.179 55.68-107.52 31.872-163.883-3.413-7.979-1.621-17.237 4.523-23.381l144.768-144.725-60.544-60.544-144.555 144.171zM332.501 186.155c24.149-57.045 12.288-121.344-30.251-163.84-34.261-34.219-82.987-49.493-129.451-41.515l58.496 56.277c4.181 4.053 6.528 9.6 6.528 15.36v90.496c0 11.776-9.557 21.333-21.333 21.333h-96.853c-5.675 0-11.093-2.261-15.104-6.229l-56.491-56.448c-8.576 47.445 6.229 96.683 41.387 131.883 42.496 42.496 108.843 55.125 163.84 31.872 7.979-3.499 17.237-1.621 23.424 4.523l410.069 410.155c6.144 6.144 7.936 15.36 4.565 23.381-23.808 56.32-11.264 120.661 31.915 163.883 34.475 34.517 84.608 49.835 131.925 41.387l-56.491-56.448c-4.011-4.011-6.229-9.429-6.229-15.104v-96.853c0-11.776 9.557-21.333 21.333-21.333h90.496c5.803 0 11.349 2.389 15.36 6.528l56.32 58.539c8.064-46.165-6.613-93.013-41.557-127.915-42.496-42.453-108.8-55.125-163.84-31.872-8.021 3.456-17.28 1.621-23.424-4.523l-410.069-410.112c-6.144-6.101-7.936-15.403-4.565-23.424zM975.915 101.632l-56.491 56.448c-4.011 4.011-9.429 6.229-15.104 6.229h-90.496c-11.776 0-21.333-9.557-21.333-21.333v-90.496c0-5.675 2.261-11.093 6.229-15.104l56.491-56.448c-47.616-8.832-96.811 6.229-131.925 41.387-43.179 43.136-55.68 107.477-31.829 163.883 3.413 8.021 1.579 17.237-4.565 23.381l-144.725 144.768 60.331 60.331 144.725-144.768c6.144-6.187 15.403-8.021 23.424-4.523 56.363 23.893 120.619 11.392 163.84-31.872 35.2-35.243 50.005-84.437 41.429-131.883z" />
<glyph unicode="&#xe902;" glyph-name="vector" d="M1002.667 746.667c11.776 0 21.333 9.557 21.333 21.333v170.667c0 11.776-9.557 21.333-21.333 21.333h-170.667c-11.776 0-21.333-9.557-21.333-21.333v-64h-597.333v64c0 11.776-9.557 21.333-21.333 21.333h-170.667c-11.776 0-21.333-9.557-21.333-21.333v-170.667c0-11.776 9.557-21.333 21.333-21.333h64v-597.333h-64c-11.776 0-21.333-9.557-21.333-21.333v-170.667c0-11.776 9.557-21.333 21.333-21.333h170.667c11.776 0 21.333 9.557 21.333 21.333v64h597.333v-64c0-11.776 9.557-21.333 21.333-21.333h170.667c11.776 0 21.333 9.557 21.333 21.333v170.667c0 11.776-9.557 21.333-21.333 21.333h-64v597.333h64zM853.333 917.333h128v-128h-128v128zM42.667 917.333h128v-128h-128v128zM170.667-21.333h-128v128h128v-128zM981.333-21.333h-128v128h128v-128zM896 149.333h-64c-11.776 0-21.333-9.557-21.333-21.333v-64h-597.333v64c0 11.776-9.557 21.333-21.333 21.333h-64v597.333h64c11.776 0 21.333 9.557 21.333 21.333v64h597.333v-64c0-11.776 9.557-21.333 21.333-21.333h64v-597.333z" />
<glyph unicode="&#xe903;" glyph-name="trash-can" d="M981.333 832h-298.667v106.667c0 11.776-9.557 21.333-21.333 21.333h-341.333c-11.776 0-21.333-9.557-21.333-21.333v-106.667h-256c-11.776 0-21.333-9.557-21.333-21.333s9.557-21.333 21.333-21.333h85.333v-832c0-11.776 9.557-21.333 21.333-21.333h682.667c11.776 0 21.333 9.557 21.333 21.333v832h128c11.776 0 21.333 9.557 21.333 21.333s-9.557 21.333-21.333 21.333zM341.333 917.333h298.667v-85.333h-298.667v85.333zM810.667-21.333h-640v810.667h640v-810.667zM320 682.667c-11.776 0-21.333-9.557-21.333-21.333v-512c0-11.776 9.557-21.333 21.333-21.333s21.333 9.557 21.333 21.333v512c0 11.776-9.557 21.333-21.333 21.333zM490.667 682.667c-11.776 0-21.333-9.557-21.333-21.333v-512c0-11.776 9.557-21.333 21.333-21.333s21.333 9.557 21.333 21.333v512c0 11.776-9.557 21.333-21.333 21.333zM640 661.333v-512c0-11.776 9.557-21.333 21.333-21.333s21.333 9.557 21.333 21.333v512c0 11.776-9.557 21.333-21.333 21.333s-21.333-9.557-21.333-21.333z" />
<glyph unicode="&#xe904;" glyph-name="smiley" d="M512 960c-282.325 0-512-229.675-512-512s229.675-512 512-512 512 229.675 512 512-229.675 512-512 512zM512-21.333c-258.773 0-469.333 210.56-469.333 469.333s210.56 469.333 469.333 469.333 469.333-210.56 469.333-469.333-210.56-469.333-469.333-469.333zM832 426.667c-11.776 0-21.333-9.557-21.333-21.333 0-164.651-133.973-298.667-298.667-298.667s-298.667 134.016-298.667 298.667c0 11.776-9.557 21.333-21.333 21.333s-21.333-9.557-21.333-21.333c0-188.203 153.131-341.333 341.333-341.333s341.333 153.131 341.333 341.333c0 11.776-9.557 21.333-21.333 21.333zM234.667 512c11.776 0 21.333 9.557 21.333 21.333 0 35.285 28.715 64 64 64s64-28.715 64-64c0-11.776 9.557-21.333 21.333-21.333s21.333 9.557 21.333 21.333c0 58.837-47.872 106.667-106.667 106.667s-106.667-47.829-106.667-106.667c0-11.776 9.557-21.333 21.333-21.333zM618.667 512c11.776 0 21.333 9.557 21.333 21.333 0 35.285 28.715 64 64 64s64-28.715 64-64c0-11.776 9.557-21.333 21.333-21.333s21.333 9.557 21.333 21.333c0 58.837-47.872 106.667-106.667 106.667s-106.667-47.829-106.667-106.667c0-11.776 9.557-21.333 21.333-21.333z" />
<glyph unicode="&#xe905;" glyph-name="settings" d="M960 960h-938.667c-11.776 0-21.333-9.557-21.333-21.333v-981.333c0-11.776 9.557-21.333 21.333-21.333h938.667c11.776 0 21.333 9.557 21.333 21.333v981.333c0 11.776-9.557 21.333-21.333 21.333zM938.667-21.333h-896v938.667h896v-938.667zM662.656 405.333h64v-64c0-11.776 9.557-21.333 21.333-21.333s21.333 9.557 21.333 21.333v64h64c11.776 0 21.333 9.557 21.333 21.333v85.333c0 11.776-9.557 21.333-21.333 21.333h-64v277.333c0 11.776-9.557 21.333-21.333 21.333s-21.333-9.557-21.333-21.333v-277.333h-64c-11.776 0-21.333-9.557-21.333-21.333v-85.333c0-11.776 9.557-21.333 21.333-21.333zM683.989 490.667h128v-42.667h-128v42.667zM405.333 618.667h64v-277.333c0-11.776 9.557-21.333 21.333-21.333s21.333 9.557 21.333 21.333v277.333h64c11.776 0 21.333 9.557 21.333 21.333v85.333c0 11.776-9.557 21.333-21.333 21.333h-64v64c0 11.776-9.557 21.333-21.333 21.333s-21.333-9.557-21.333-21.333v-64h-64c-11.776 0-21.333-9.557-21.333-21.333v-85.333c0-11.776 9.557-21.333 21.333-21.333zM426.667 704h128v-42.667h-128v42.667zM149.333 490.667h64v-149.333c0-11.776 9.557-21.333 21.333-21.333s21.333 9.557 21.333 21.333v149.333h64c11.776 0 21.333 9.557 21.333 21.333v85.333c0 11.776-9.557 21.333-21.333 21.333h-64v192c0 11.776-9.557 21.333-21.333 21.333s-21.333-9.557-21.333-21.333v-192h-64c-11.776 0-21.333-9.557-21.333-21.333v-85.333c0-11.776 9.557-21.333 21.333-21.333zM170.667 576h128v-42.667h-128v42.667zM748.459 234.667c-47.061 0-85.333-38.272-85.333-85.333s38.272-85.333 85.333-85.333 85.333 38.272 85.333 85.333-38.272 85.333-85.333 85.333zM748.459 106.667c-23.509 0-42.667 19.115-42.667 42.667s19.157 42.667 42.667 42.667 42.667-19.115 42.667-42.667-19.157-42.667-42.667-42.667zM490.667 234.667c-47.061 0-85.333-38.272-85.333-85.333s38.272-85.333 85.333-85.333 85.333 38.272 85.333 85.333-38.272 85.333-85.333 85.333zM490.667 106.667c-23.509 0-42.667 19.115-42.667 42.667s19.157 42.667 42.667 42.667 42.667-19.115 42.667-42.667-19.157-42.667-42.667-42.667zM234.667 234.667c-47.061 0-85.333-38.272-85.333-85.333s38.272-85.333 85.333-85.333 85.333 38.272 85.333 85.333-38.272 85.333-85.333 85.333zM234.667 106.667c-23.509 0-42.667 19.115-42.667 42.667s19.157 42.667 42.667 42.667 42.667-19.115 42.667-42.667-19.157-42.667-42.667-42.667z" />
<glyph unicode="&#xe906;" glyph-name="script" d="M618.667 746.667h-234.667c-11.776 0-21.333-9.557-21.333-21.333s9.557-21.333 21.333-21.333h234.667c11.776 0 21.333 9.557 21.333 21.333s-9.557 21.333-21.333 21.333zM618.667 618.667h-234.667c-11.776 0-21.333-9.557-21.333-21.333s9.557-21.333 21.333-21.333h234.667c11.776 0 21.333 9.557 21.333 21.333s-9.557 21.333-21.333 21.333zM618.667 490.667h-234.667c-11.776 0-21.333-9.557-21.333-21.333s9.557-21.333 21.333-21.333h234.667c11.776 0 21.333 9.557 21.333 21.333s-9.557 21.333-21.333 21.333zM618.667 362.667h-234.667c-11.776 0-21.333-9.557-21.333-21.333s9.557-21.333 21.333-21.333h234.667c11.776 0 21.333 9.557 21.333 21.333s-9.557 21.333-21.333 21.333zM896 960c-4.864 0-9.515-0.896-14.208-1.408-2.261 0.768-4.565 1.408-7.125 1.408h-512c-82.347 0-149.333-66.987-149.333-149.333v-576h-64c-82.347 0-149.333-66.987-149.333-149.333s66.987-149.333 149.333-149.333h512c82.347 0 149.333 66.987 149.333 149.333v704h192c11.776 0 21.333 9.557 21.333 21.333 0 87.936-52.608 149.333-128 149.333zM149.333-21.333c-58.837 0-106.667 47.829-106.667 106.667s47.829 106.667 106.667 106.667h407.595c-27.733-27.136-44.928-64.896-44.928-106.667s17.195-79.531 44.928-106.667h-407.595zM768 85.333c0-58.837-47.829-106.667-106.667-106.667s-106.667 47.829-106.667 106.667 47.829 106.667 106.667 106.667c11.776 0 21.333 9.557 21.333 21.333s-9.557 21.333-21.333 21.333h-405.333v576c0 58.837 47.829 106.667 106.667 106.667h438.613c-20.437-22.699-33.28-52.437-33.28-85.333v-746.667zM810.667 832c0 47.061 38.272 85.333 85.333 85.333 45.141 0 77.184-33.493 83.968-85.333h-169.301z" />
<glyph unicode="&#xe907;" glyph-name="refresh" d="M290.645 521.259c-9.003 7.509-22.443 6.272-30.037-2.688l-107.776-129.067c-10.624 76.715 5.035 154.752 46.165 223.659 50.261 84.224 132.395 145.109 225.323 167.125 122.453 28.843 250.667-11.605 334.293-106.027 7.808-8.875 21.291-9.685 30.080-1.835 8.832 7.808 9.685 21.291 1.835 30.080-93.952 106.155-237.995 151.936-376.021 119.296-104.107-24.576-196.011-92.672-252.117-186.752-38.187-63.915-56.533-134.955-55.211-206.421l-68.139 101.461c-6.613 9.856-19.925 12.373-29.568 5.845-9.771-6.571-12.416-19.84-5.845-29.568l118.912-177.067c3.755-5.589 9.856-9.088 16.597-9.429 0.384-0.043 0.768-0.043 1.109-0.043 6.272 0 12.288 2.773 16.384 7.68l136.747 163.755c7.552 9.003 6.315 22.443-2.731 29.995zM1002.112 346.581l-118.827 177.067c-3.755 5.589-9.856 9.088-16.597 9.429-4.992 0.512-9.728-1.664-13.739-4.779-0.725-0.427-1.28-0.939-1.963-1.451-0.555-0.555-1.28-0.811-1.792-1.365l-2.005-2.389c-0.299-0.427-0.725-0.768-0.981-1.195l-133.845-160.085c-7.552-9.045-6.315-22.443 2.688-30.037 8.96-7.552 22.485-6.443 30.037 2.688l102.656 122.795c3.669-154.411-109.013-304.171-266.453-341.376-114.944-27.264-233.984 6.187-318.464 89.387-8.32 8.192-21.845 8.192-30.165-0.256-8.235-8.363-8.149-21.888 0.256-30.165 73.173-72.064 169.472-110.933 269.013-110.933 29.611 0 59.563 3.413 89.216 10.453 172.373 40.661 294.101 194.176 299.563 361.6l75.947-113.109c4.139-6.187 10.88-9.472 17.707-9.472 4.139 0 8.235 1.152 11.861 3.627 9.856 6.528 12.501 19.797 5.888 29.568z" />
<glyph unicode="&#xe908;" glyph-name="play-circle" d="M512 896c-260.267 0-469.333-209.067-469.333-469.333s209.067-469.333 469.333-469.333 469.333 209.067 469.333 469.333-209.067 469.333-469.333 469.333zM512 42.667c-213.333 0-384 170.667-384 384s170.667 384 384 384c213.333 0 384-170.667 384-384s-170.667-384-384-384zM708.267 460.8l-256 170.667c-12.8 8.533-29.867 8.533-42.667 0-17.067-4.267-25.6-17.067-25.6-34.133v-341.333c0-17.067 8.533-29.867 21.333-38.4 8.533-4.267 12.8-4.267 21.333-4.267s17.067 4.267 25.6 8.533l256 170.667c12.8 8.533 17.067 21.333 17.067 34.133s-8.533 25.6-17.067 34.133zM469.333 337.067v179.2l136.533-89.6-136.533-89.6z" />
<glyph unicode="&#xe909;" glyph-name="quill-ink" d="M384.683 189.056v45.611h21.333c11.776 0 21.333 9.557 21.333 21.333v85.333c0 11.776-9.557 21.333-21.333 21.333h-213.333c-11.776 0-21.333-9.557-21.333-21.333v-85.333c0-11.776 9.557-21.333 21.333-21.333h21.333v-45.653c-133.504-22.997-203.349-98.432-213.291-230.059-0.427-5.973 1.621-11.776 5.675-16.128 3.968-4.352 9.685-6.827 15.616-6.827h557.824c5.931 0 11.605 2.475 15.616 6.827 4.053 4.352 6.101 10.155 5.675 16.128-9.984 131.456-80.811 206.891-216.448 230.101zM45.739-21.333c14.805 102.4 74.965 155.477 192.384 170.837 10.581 1.408 18.56 10.453 18.56 21.163v85.333c0 11.776-9.557 21.333-21.333 21.333h-21.333v42.667h170.667v-42.667h-21.333c-11.776 0-21.333-9.557-21.333-21.333v-85.333c0-10.709 7.979-19.755 18.56-21.163 117.76-15.403 180.395-69.931 195.456-170.837h-510.293zM992.768 941.739c-8.32 8.32-21.845 8.32-30.165 0-0.427-0.427-0.555-0.896-0.896-1.365l-107.648-107.648v105.941c0 7.381-3.84 14.251-10.069 18.133-6.315 3.883-14.165 4.267-20.736 0.981-45.141-22.4-116.821-69.888-182.827-136.021-61.355-61.355-109.056-132.352-134.229-199.979-22.357-60.075-23.851-109.397-5.205-142.165l-55.595-55.595c-8.32-8.32-8.32-21.845 0-30.165 4.181-4.181 9.643-6.229 15.104-6.229s10.923 2.091 15.104 6.229l55.168 55.168c19.115-11.136 44.288-16.853 73.131-16.853 70.827 0 163.627 34.261 243.2 106.624 6.528 5.973 8.747 15.232 5.589 23.509-3.328 8.277-11.179 13.696-20.011 13.696h-175.104l42.667 42.667h196.437c11.776 0 21.333 9.557 21.333 21.333s-9.557 21.333-21.333 21.333h-153.771l42.709 42.667h173.141c7.637 0 14.72 4.096 18.517 10.709 55.296 96.512 61.099 181.376 15.488 227.029zM546.133 606.976c22.741 61.099 68.096 128.427 124.373 184.661 48.512 48.597 100.992 86.869 140.843 110.891v-112.469l-49.365-49.365c-0.213-0.213-0.427-0.427-0.64-0.64l-227.883-227.84c-5.931 22.229-1.749 56.021 12.672 94.763zM771.2 533.333c-84.053-56.747-166.741-65.963-207.957-51.669l51.669 51.669h156.288zM946.219 746.667h-117.931l18.261 18.261c0.768 0.683 1.365 1.28 2.048 2.048l125.781 125.781c13.781-33.195 4.139-85.931-28.16-146.091z" />
<glyph unicode="&#xe90a;" glyph-name="picture-frame" d="M1002.667 746.667h-226.859l-221.824 186.965c-8.021 6.784-19.883 6.656-27.733-0.213l-214.272-186.752h-290.645c-11.776 0-21.333-9.557-21.333-21.333v-768c0-11.776 9.557-21.333 21.333-21.333h981.333c11.776 0 21.333 9.557 21.333 21.333v768c0 11.776-9.557 21.333-21.333 21.333zM540.459 889.216l169.131-142.549h-332.672l163.541 142.549zM981.333-21.333h-938.667v725.333h938.667v-725.333zM106.667 21.333h810.667c11.776 0 21.333 9.557 21.333 21.333v597.333c0 11.776-9.557 21.333-21.333 21.333h-810.667c-11.776 0-21.333-9.557-21.333-21.333v-597.333c0-11.776 9.557-21.333 21.333-21.333zM278.4 149.333h211.157c21.717-35.285 42.112-64.512 57.557-85.333h-326.229c15.403 20.821 35.84 50.048 57.515 85.333zM303.488 192c30.763 55.125 61.099 120.235 80.512 189.184 19.413-68.949 49.749-134.059 80.512-189.184h-161.024zM768 64h-42.667v128h42.667v-128zM810.667 64v256h85.333v-256h-85.333zM128 618.667h768v-256h-106.667c-11.776 0-21.333-9.557-21.333-21.333v-106.667h-64c-11.776 0-21.333-9.557-21.333-21.333v-149.333h-81.749c-32.725 41.387-195.584 257.664-195.584 460.245 0 11.776-9.557 21.333-21.333 21.333s-21.333-9.557-21.333-21.333c0-202.581-162.859-418.859-195.584-460.245h-39.083v554.667z" />
<glyph unicode="&#xe90b;" glyph-name="pen-point-tip" d="M979.627 790.4l-120.661 120.661c-8.32 8.32-21.845 8.32-30.165 0l-16.64-16.64c-41.387 27.349-97.792 22.827-134.229-13.568l-241.365-241.28c-8.32-8.32-8.32-21.845 0-30.165 4.181-4.181 9.643-6.229 15.104-6.229s10.923 2.091 15.104 6.229l241.365 241.28c19.584 19.584 48.597 23.211 72.32 12.032l-615.381-615.339c-8.32-8.32-8.32-21.845 0-30.165l15.104-15.104-75.435-75.52c-8.32-8.32-8.32-21.845 0-30.165l15.061-15.061-75.435-75.349c-8.32-8.32-8.32-21.845 0-30.165 4.181-4.181 9.643-6.229 15.104-6.229s10.923 2.091 15.104 6.229l75.392 75.435 15.104-15.104c4.181-4.181 9.643-6.229 15.104-6.229s10.923 2.091 15.104 6.229l75.392 75.435 15.104-15.104c4.011-4.011 9.429-6.229 15.104-6.229s11.093 2.261 15.104 6.229l663.723 663.765c8.235 8.32 8.235 21.803-0.085 30.123zM180.139 81.408l-14.976 14.976c-0.043 0.043-0.043 0.128-0.128 0.171s-0.128 0.085-0.171 0.128l-14.891 14.891 60.331 60.416 30.208-30.208-60.373-60.373zM300.8 141.696l-15.019 15.061c0 0.043-0.043 0.043-0.043 0.085l-60.331 60.373c0 0 0 0-0.043 0.043l-15.061 15.061 392.192 392.149 90.539-90.539-392.235-392.235zM723.2 564.139l-90.539 90.539 196.011 196.011c0.043 0.043 0.085 0.043 0.128 0.085s0.043 0.085 0.085 0.128l15.019 15.019 90.496-90.496-211.2-211.285z" />
<glyph unicode="&#xe90c;" glyph-name="pen-fountain" d="M1007.317 812.245l-120.661 120.661c-8.021 8.021-22.187 8.021-30.165 0l-16.64-16.64c-41.387 27.349-97.792 22.869-134.229-13.568l-241.323-241.28c-8.32-8.32-8.32-21.845 0-30.165 4.181-4.181 9.643-6.229 15.104-6.229s10.923 2.091 15.104 6.229l241.323 241.28c19.584 19.584 48.597 23.211 72.32 12.032l-628.053-628.011c-6.784-6.784-7.765-16.896-3.499-24.917-31.36-0.981-62.464-12.629-85.333-35.541-44.587-44.587-76.971-215.552-80.512-234.923-0.085-0.555 0.171-1.067 0.085-1.621-0.213-2.219-0.043-4.352 0.427-6.485 0.213-0.896 0.213-1.835 0.555-2.688 0.981-2.944 2.56-5.76 4.864-8.064 2.048-2.048 4.437-3.584 6.997-4.651 2.56-1.109 5.333-1.664 8.064-1.664 1.28 0 2.56 0.128 3.84 0.341 19.328 3.541 190.336 35.84 234.923 80.512 22.741 22.699 35.371 52.608 36.608 84.565 2.731-1.237 5.675-2.005 8.704-2.005 5.675 0 11.093 2.261 15.104 6.229l676.395 676.437c8.363 8.32 8.363 21.845 0 30.165zM240.341 47.019c-18.688-18.688-82.347-38.784-142.251-53.504l69.419 69.419c8.32 8.32 8.32 21.845 0 30.165s-21.845 8.32-30.165 0l-69.376-69.376c14.72 59.861 34.773 123.563 53.461 142.208 15.872 15.915 36.992 24.661 59.477 24.661s43.563-8.747 59.477-24.661c15.872-15.872 24.619-36.992 24.619-59.477-0.043-22.485-8.789-43.563-24.661-59.435zM315.819 150.912l-90.496 90.539 404.907 404.821 90.496-90.496-404.907-404.864zM750.933 585.941l-90.496 90.496 195.968 196.011c0.043 0.043 0.085 0.043 0.128 0.085s0.043 0.085 0.085 0.128l15.019 15.019 90.496-90.496-211.2-211.243z" />
<glyph unicode="&#xe90d;" glyph-name="pause-outline" d="M150.016 98.816c-96.436 93.233-156.308 223.762-156.308 368.276 0 282.77 229.23 512 512 512 144.514 0 275.043-59.872 368.137-156.164l0.138-0.144c88.925-91.979 143.724-217.436 143.724-355.692 0-282.77-229.23-512-512-512-138.256 0-263.713 54.799-355.836 143.863l0.144-0.138zM801.792 171.008c74.164 74.164 120.036 176.621 120.036 289.792 0 226.342-183.486 409.828-409.828 409.828-113.171 0-215.628-45.872-289.792-120.036v0c-74.164-74.164-120.036-176.621-120.036-289.792 0-226.342 183.486-409.828 409.828-409.828 113.171 0 215.628 45.872 289.792 120.036v0zM358.4 665.6h102.4v-409.6h-102.4v409.6zM563.2 665.6h102.4v-409.6h-102.4v409.6z" />
<glyph unicode="&#xe90e;" glyph-name="pencil-ruler" d="M424.832 627.328l-85.333 192c-6.827 15.403-32.171 15.403-38.997 0l-85.333-192c-0.043-0.043 0-0.128-0.043-0.171-1.109-2.603-1.792-5.461-1.792-8.491v-576c0-58.795 47.829-106.667 106.667-106.667s106.667 47.872 106.667 106.667v576c0 3.029-0.683 5.888-1.792 8.491-0.043 0.043 0 0.128-0.043 0.171zM298.667 597.333v-405.333h-42.667v405.333h42.667zM384 597.333v-405.333h-42.667v405.333h42.667zM256 149.333h128v-42.667h-128v42.667zM320 758.144l52.48-118.144h-104.96l52.48 118.144zM320-21.333c-35.285 0-64 28.715-64 64v21.333h128v-21.333c0-35.285-28.715-64-64-64zM789.333 960h-256c-11.776 0-21.333-9.557-21.333-21.333v-981.333c0-11.776 9.557-21.333 21.333-21.333h256c11.776 0 21.333 9.557 21.333 21.333v981.333c0 11.776-9.557 21.333-21.333 21.333zM768-21.333h-213.333v128h64c11.776 0 21.333 9.557 21.333 21.333s-9.557 21.333-21.333 21.333h-64v128h64c11.776 0 21.333 9.557 21.333 21.333s-9.557 21.333-21.333 21.333h-64v128h64c11.776 0 21.333 9.557 21.333 21.333s-9.557 21.333-21.333 21.333h-64v128h64c11.776 0 21.333 9.557 21.333 21.333s-9.557 21.333-21.333 21.333h-64v128h64c11.776 0 21.333 9.557 21.333 21.333s-9.557 21.333-21.333 21.333h-64v85.333h213.333v-938.667z" />
<glyph unicode="&#xe90f;" glyph-name="play-outline" d="M150.016 98.816c-96.436 93.233-156.308 223.762-156.308 368.276 0 282.77 229.23 512 512 512 144.514 0 275.043-59.872 368.137-156.164l0.138-0.144c88.925-91.979 143.724-217.436 143.724-355.692 0-282.77-229.23-512-512-512-138.256 0-263.713 54.799-355.836 143.863l0.144-0.138zM801.792 171.008c74.164 74.164 120.036 176.621 120.036 289.792 0 226.342-183.486 409.828-409.828 409.828-113.171 0-215.628-45.872-289.792-120.036v0c-74.164-74.164-120.036-176.621-120.036-289.792 0-226.342 183.486-409.828 409.828-409.828 113.171 0 215.628 45.872 289.792 120.036v0zM358.4 665.6l409.6-204.8-409.6-204.8v409.6z" />
<glyph unicode="&#xe910;" glyph-name="paint-roller" d="M874.667 832h-21.333v106.667c0 11.776-9.557 21.333-21.333 21.333h-640c-11.776 0-21.333-9.557-21.333-21.333v-106.667h-21.333c-35.285 0-64-28.715-64-64v-170.667c0-35.285 28.715-64 64-64h341.333c11.563 0 21.333-9.771 21.333-21.333v-107.52c-39.765-8.661-85.333-39.381-85.333-82.645v-320c0-40.149 60.501-65.835 92.117-65.835h42.667c35.584 0 78.549 29.355 78.549 65.877v320c0 43.264-45.568 73.941-85.333 82.645v107.477c0 35.285-28.715 64-64 64h-341.333c-11.776 0-21.333 9.6-21.333 21.333v170.667c0 11.563 9.771 21.333 21.333 21.333h21.333v-106.667c0-11.776 9.557-21.333 21.333-21.333h640c11.776 0 21.333 9.557 21.333 21.333v106.667h21.333c11.776 0 21.333 9.557 21.333 21.333s-9.557 21.333-21.333 21.333zM597.333 321.877v-320c0-8.405-20.736-23.211-35.883-23.211h-42.667c-16.939 0-46.976 15.659-49.451 23.211v320c0 20.565 37.547 42.667 64 42.667s64-22.101 64-42.667zM810.667 704h-597.333v213.333h597.333v-213.333z" />
<glyph unicode="&#xe911;" glyph-name="paint-palette" d="M874.027 777.771c-96.683 96.683-225.28 149.888-362.027 149.888s-265.344-53.205-362.027-149.888c-96.725-96.683-149.973-225.28-149.973-362.069s53.291-265.387 149.973-362.027c40.277-40.32 110.549-40.32 150.912 0 41.515 41.6 41.515 109.269 0 150.827-4.011 4.053-6.229 9.387-6.229 15.104s2.176 11.008 6.187 15.061c8.021 8.064 22.101 8.064 30.165 0l180.992-180.992c48.341-48.384 112.64-75.008 181.035-75.008s132.651 26.624 180.992 75.008c96.725 96.64 149.973 225.237 149.973 362.027s-53.248 265.387-149.973 362.069zM843.861 83.84c-40.277-40.277-93.824-62.507-150.827-62.507s-110.549 22.229-150.869 62.507l-180.992 180.992c-12.075 12.075-28.16 18.731-45.269 18.731s-33.195-6.656-45.227-18.731c-12.075-12.075-18.731-28.16-18.731-45.269s6.656-33.152 18.731-45.269c24.917-24.96 24.917-65.536 0-90.496-24.149-24.149-66.389-24.149-90.539 0-88.661 88.661-137.472 206.549-137.472 331.904s48.853 243.243 137.472 331.861 206.507 137.429 331.861 137.429 243.243-48.811 331.861-137.429 137.472-206.464 137.472-331.861-48.811-243.243-137.472-331.861zM693.035 541.568c22.784 0 44.245 8.875 60.288 24.96 16.128 16.085 25.003 37.504 25.003 60.331s-8.875 44.245-24.96 60.288c-16.085 16.128-37.547 25.003-60.331 25.003-22.827 0-44.245-8.875-60.331-24.96-16.128-16.085-25.003-37.504-25.003-60.331s8.875-44.245 25.003-60.288c16.085-16.128 37.504-25.003 60.331-25.003zM662.827 656.981c8.064 8.021 18.773 12.501 30.208 12.501s22.101-4.437 30.165-12.544c8.021-8.021 12.459-18.688 12.459-30.080s-4.437-22.101-12.501-30.123c-16.085-16.171-44.16-16.128-60.331 0.043-8.021 8.021-12.459 18.688-12.459 30.080s4.395 22.101 12.459 30.123zM855.893 461.056c-24.149 24.064-66.176 24.149-90.496-0.085-24.875-25.003-24.875-65.579 0.043-90.453 12.075-12.117 28.16-18.773 45.227-18.773s33.152 6.656 45.269 18.731c24.875 24.917 24.917 65.493-0.043 90.581zM825.771 400.683c-8.064-8.064-22.101-8.064-30.165 0-8.277 8.277-8.277 21.845-0.043 30.123 4.053 4.011 9.429 6.229 15.104 6.229s11.093-2.219 15.061-6.144c8.277-8.405 8.32-21.931 0.043-30.208zM617.6 279.936c-20.139-20.096-31.189-46.891-31.189-75.392s11.093-55.296 31.189-75.477c20.139-20.181 46.933-31.232 75.435-31.232s55.296 11.093 75.435 31.232c20.181 20.181 31.275 47.019 31.232 75.52s-11.136 55.253-31.232 75.349c-40.32 40.32-110.635 40.32-150.869 0zM738.219 159.232c-24.107-24.149-66.347-24.149-90.453 0-12.075 12.075-18.731 28.16-18.731 45.312 0 17.067 6.613 33.152 18.731 45.227 12.075 12.075 28.117 18.731 45.227 18.731s33.152-6.656 45.269-18.731c12.075-12.032 18.688-28.075 18.731-45.184s-6.656-33.195-18.773-45.355zM376.277 732.501c-16.171-16.128-25.045-37.547-25.045-60.331s8.875-44.203 25.003-60.331c16.085-16.128 37.547-25.003 60.331-25.003s44.245 8.875 60.288 25.003c16.128 16.128 25.045 37.547 25.045 60.331s-8.875 44.203-25.003 60.331c-32.213 32.256-88.405 32.256-120.619 0zM466.688 642.005c-16.085-16.171-44.117-16.171-60.288 0-8.064 8.064-12.501 18.773-12.501 30.165s4.437 22.101 12.501 30.165c8.064 8.021 18.773 12.501 30.165 12.501s22.059-4.437 30.123-12.501 12.501-18.773 12.501-30.165-4.395-22.101-12.501-30.165z" />
<glyph unicode="&#xe912;" glyph-name="paint-bucket" d="M834.048 418.517c3.285 7.979 1.451 17.152-4.608 23.253l-384 384c-4.181 4.139-9.643 6.229-15.104 6.229v21.333c0 58.837-47.829 106.667-106.667 106.667s-106.667-47.829-106.667-106.667v-225.835l-164.437-164.437c-41.6-41.6-41.6-109.269 0-150.869l199.339-199.296c20.181-20.181 46.933-31.232 75.435-31.232s55.253 11.093 75.435 31.232l292.395 292.437h119.168c8.619 0 16.427 5.205 19.712 13.184zM259.669 853.333c0 35.285 28.715 64 64 64s64-28.715 64-64v-55.168l-128-128v183.168zM686.336 448c-5.675 0-11.093-2.261-15.104-6.229l-298.667-298.667c-24.149-24.149-66.347-24.149-90.496 0l-199.339 199.296c-24.96 24.96-24.96 65.579 0 90.539l168.576 168.576c1.365 1.024 2.475 2.133 3.541 3.499l132.821 132.821v-225.835c0-11.776 9.557-21.333 21.333-21.333s21.333 9.557 21.333 21.333v268.501l332.501-332.501h-76.501zM875.264 309.76c-7.765 12.757-28.757 12.757-36.48 0-11.221-18.56-109.739-182.656-109.739-245.76 0-70.571 57.429-128 128-128s128 57.429 128 128c-0.043 63.104-98.603 227.2-109.781 245.76zM857.003-21.333c-47.061 0-85.333 38.272-85.333 85.333 0 33.067 46.763 125.397 85.333 192.64 38.571-67.2 85.333-159.531 85.333-192.64 0-47.061-38.315-85.333-85.333-85.333z" />
<glyph unicode="&#xe913;" glyph-name="paint-brush" d="M853.333 533.333h-214.315c-7.083 0-13.696 3.541-17.664 9.344-3.968 5.888-4.779 13.312-2.133 19.883 13.781 34.432 20.779 70.741 20.779 107.904v161.536c0 70.571-57.429 128-128 128s-128-57.429-128-128v-161.536c0-37.077 6.997-73.387 20.779-107.904 2.645-6.571 1.835-13.995-2.091-19.84-4.011-5.845-10.624-9.387-17.707-9.387h-214.315c-47.061 0-85.333-38.272-85.333-85.333v-149.333c0-11.776 9.557-21.333 21.333-21.333h21.333v-320c0-11.776 9.557-21.333 21.333-21.333h128c8.064 0 15.445 4.565 19.072 11.776l44.928 89.856v-80.299c0-11.776 9.557-21.333 21.333-21.333h512c11.776 0 21.333 9.557 21.333 21.333v320h21.333c11.776 0 21.333 9.557 21.333 21.333v149.333c0 47.061-38.272 85.333-85.333 85.333zM853.333-21.333h-42.667v192c0 11.776-9.557 21.333-21.333 21.333s-21.333-9.557-21.333-21.333v-192h-42.667v149.333c0 11.776-9.557 21.333-21.333 21.333s-21.333-9.557-21.333-21.333v-149.333h-42.667v85.333c0 11.776-9.557 21.333-21.333 21.333s-21.333-9.557-21.333-21.333v-85.333h-213.333v149.333c0 9.899-6.827 18.517-16.427 20.779-9.643 2.304-19.541-2.347-23.979-11.221l-79.445-158.891h-93.483v298.667h682.667v-298.667zM896 320h-768v128c0 23.509 19.157 42.667 42.667 42.667h214.315c21.248 0 41.045 10.496 53.035 28.16 11.904 17.664 14.293 39.979 6.357 59.605-11.733 29.44-17.707 60.416-17.707 92.032v161.536c0 47.061 38.272 85.333 85.333 85.333s85.333-38.272 85.333-85.333v-161.536c0-31.744-5.973-62.677-17.749-92.032-7.893-19.712-5.504-42.027 6.4-59.648 11.989-17.621 31.787-28.117 53.035-28.117h214.315c23.509 0 42.667-19.157 42.667-42.667v-128zM554.667 832c0-23.564-19.103-42.667-42.667-42.667s-42.667 19.103-42.667 42.667c0 23.564 19.103 42.667 42.667 42.667s42.667-19.103 42.667-42.667z" />
<glyph unicode="&#xe914;" glyph-name="magic-wand" d="M939.989 587.733l-81.152 81.152 41.088 123.307c2.56 7.68 0.555 16.128-5.163 21.845-5.76 5.717-14.080 7.637-21.845 5.163l-123.264-41.131-81.152 81.152c-6.357 6.357-16.128 8.021-24.32 4.139-8.149-3.925-12.971-12.544-11.947-21.589l13.525-121.6-123.392-68.523c-7.723-4.309-11.989-12.928-10.752-21.675 1.237-8.704 7.723-15.787 16.341-17.792l109.952-25.344-553.856-550.4c-8.32-8.277-8.363-21.803-0.085-30.165 4.139-4.181 9.6-6.272 15.104-6.272 5.419 0 10.88 2.091 15.061 6.229l553.643 550.187 25.173-109.269c2.005-8.619 9.088-15.104 17.792-16.341 0.981-0.128 2.005-0.213 2.987-0.213 7.68 0 14.848 4.139 18.688 10.965l68.48 123.392 121.685-13.483c8.96-0.896 17.621 3.755 21.547 11.947 3.968 8.149 2.304 17.92-4.139 24.32zM791.509 608.896c-8.405 0.768-16.853-3.328-20.992-10.837l-48.427-87.211-21.461 93.013c-1.835 7.979-8.021 14.165-16 16l-93.013 21.461 87.253 48.469c7.509 4.224 11.776 12.459 10.837 21.035l-8.363 75.264 47.488-47.488c5.76-5.717 14.165-7.68 21.845-5.163l95.232 31.787-31.744-95.275c-2.56-7.68-0.555-16.128 5.163-21.845l47.488-47.488-75.307 8.277z" />
<glyph unicode="&#xe915;" glyph-name="lock-unlocked" d="M490.667 283.861v-113.195c0-11.776 9.557-21.333 21.333-21.333s21.333 9.557 21.333 21.333v113.195c12.501 7.467 21.333 20.565 21.333 36.139 0 23.552-19.115 42.667-42.667 42.667s-42.667-19.115-42.667-42.667c0-15.573 8.832-28.672 21.333-36.139zM874.667 576h-106.667v128c0 141.184-114.816 256-256 256s-256-114.816-256-256h42.667c0 117.632 95.701 213.333 213.333 213.333s213.333-95.701 213.333-213.333v-128h-576c-11.776 0-21.333-9.557-21.333-21.333v-597.333c0-11.776 9.557-21.333 21.333-21.333h725.333c11.776 0 21.333 9.557 21.333 21.333v597.333c0 11.776-9.557 21.333-21.333 21.333zM853.333-21.333h-682.667v554.667h682.667v-554.667z" />
<glyph unicode="&#xe916;" glyph-name="lock-locked" d="M512 362.667c-23.552 0-42.667-19.115-42.667-42.667 0-15.573 8.832-28.672 21.333-36.139v-113.195c0-11.776 9.557-21.333 21.333-21.333s21.333 9.557 21.333 21.333v113.195c12.501 7.467 21.333 20.565 21.333 36.139 0 23.552-19.115 42.667-42.667 42.667zM874.667 576h-106.667v128c0 141.184-114.816 256-256 256s-256-114.816-256-256v-128h-106.667c-11.776 0-21.333-9.557-21.333-21.333v-597.333c0-11.776 9.557-21.333 21.333-21.333h725.333c11.776 0 21.333 9.557 21.333 21.333v597.333c0 11.776-9.557 21.333-21.333 21.333zM298.667 704c0 117.632 95.701 213.333 213.333 213.333s213.333-95.701 213.333-213.333v-128h-426.667v128zM853.333-21.333h-682.667v554.667h682.667v-554.667z" />
<glyph unicode="&#xe917;" glyph-name="link" d="M512.043 303.019l-135.808-135.765c-40.235-40.32-110.549-40.32-150.869 0l-30.165 30.123c-20.139 20.139-31.189 46.933-31.189 75.435s11.093 55.296 31.189 75.435l196.139 196.139c41.6 41.685 109.312 41.6 150.869 0l30.165-30.165c8.32-8.32 21.845-8.32 30.165 0s8.32 21.845 0 30.165l-30.165 30.165c-58.197 58.197-152.917 58.24-211.2 0l-196.139-196.139c-58.197-58.197-58.197-152.96 0-211.157l30.165-30.123c28.203-28.203 65.707-43.733 105.643-43.733s77.397 15.531 105.6 43.733l135.808 135.765c8.32 8.32 8.32 21.845 0 30.165s-21.888 8.277-30.208-0.043zM858.965 800.811l-30.165 30.165c-58.24 58.155-152.917 58.155-211.157 0l-135.765-135.723c-8.32-8.32-8.32-21.845 0-30.165s21.845-8.32 30.165 0l135.765 135.723c41.557 41.6 109.227 41.557 150.827 0l30.165-30.165c20.181-20.139 31.232-46.933 31.232-75.435s-11.093-55.296-31.232-75.435l-196.096-196.139c-40.32-40.32-110.592-40.32-150.827 0-8.32 8.32-21.845 8.32-30.165 0s-8.32-21.845 0-30.165c28.16-28.203 65.664-43.733 105.6-43.733 39.893 0 77.355 15.531 105.6 43.733l196.096 196.139c28.203 28.16 43.733 65.664 43.733 105.6s-15.573 77.397-43.776 105.6z" />
<glyph unicode="&#xe918;" glyph-name="layers-image" d="M981.333 725.333v-746.667h-746.667v-42.667h768c11.776 0 21.333 9.557 21.333 21.333v768h-42.667zM938.667 42.667v810.667h-42.667v-789.333h-789.333v-42.667h810.667c11.776 0 21.333 9.557 21.333 21.333zM853.333 128v810.667c0 11.776-9.557 21.333-21.333 21.333h-810.667c-11.776 0-21.333-9.557-21.333-21.333v-810.667c0-11.776 9.557-21.333 21.333-21.333h810.667c11.776 0 21.333 9.557 21.333 21.333zM810.667 917.333v-597.333h-70.571l-122.795 327.509c-2.773 7.509-9.6 12.8-17.493 13.696-8.149 0.725-15.744-2.731-20.224-9.387l-154.837-232.192-88.363 106.027c-4.437 5.291-11.221 8.107-18.005 7.595-6.912-0.512-13.141-4.352-16.683-10.283l-121.771-202.965h-137.259v597.333h768zM694.571 320h-464.896l93.184 155.264 87.467-104.917c4.267-5.163 10.539-8.32 17.493-7.637 6.741 0.341 12.885 3.883 16.64 9.472l147.584 221.355 102.528-273.536zM42.667 149.333v128h768v-128h-768zM256 661.333c47.061 0 85.333 38.272 85.333 85.333s-38.272 85.333-85.333 85.333-85.333-38.272-85.333-85.333 38.272-85.333 85.333-85.333zM256 789.333c23.552 0 42.667-19.115 42.667-42.667s-19.115-42.667-42.667-42.667-42.667 19.115-42.667 42.667 19.115 42.667 42.667 42.667z" />
<glyph unicode="&#xe919;" glyph-name="layers" d="M874.667 234.667c-11.776 0-21.333-9.557-21.333-21.333v-64h-682.667v426.667h21.333c11.776 0 21.333 9.557 21.333 21.333s-9.557 21.333-21.333 21.333h-42.667c-11.776 0-21.333-9.557-21.333-21.333v-469.333c0-11.776 9.557-21.333 21.333-21.333h725.333c11.776 0 21.333 9.557 21.333 21.333v85.333c0 11.776-9.557 21.333-21.333 21.333zM1002.667 789.333h-725.333c-11.776 0-21.333-9.557-21.333-21.333v-469.333c0-11.776 9.557-21.333 21.333-21.333h725.333c11.776 0 21.333 9.557 21.333 21.333v469.333c0 11.776-9.557 21.333-21.333 21.333zM981.333 320h-682.667v426.667h682.667v-426.667zM746.667 64c-11.776 0-21.333-9.557-21.333-21.333v-64h-682.667v426.667h21.333c11.776 0 21.333 9.557 21.333 21.333s-9.557 21.333-21.333 21.333h-42.667c-11.776 0-21.333-9.557-21.333-21.333v-469.333c0-11.776 9.557-21.333 21.333-21.333h725.333c11.776 0 21.333 9.557 21.333 21.333v85.333c0 11.776-9.557 21.333-21.333 21.333z" />
<glyph unicode="&#xe91a;" glyph-name="image" d="M1002.667 960h-981.333c-11.776 0-21.333-9.557-21.333-21.333v-981.333c0-11.776 9.557-21.333 21.333-21.333h981.333c11.776 0 21.333 9.557 21.333 21.333v981.333c0 11.776-9.557 21.333-21.333 21.333zM981.333 917.333v-682.667h-29.483l-144.981 289.92c-15.829 31.701-47.659 51.413-83.115 51.413-32.896 0-63.616-17.664-80.213-46.080l-112.555-192.896c-33.152 39.979-103.979 110.976-189.653 110.976-105.173 0-183.979-162.219-206.165-213.333h-92.501v682.667h938.667zM904.107 234.667h-722.005c30.976 65.323 94.549 170.667 159.232 170.667 93.824 0 173.44-117.333 174.251-118.485 4.053-6.144 9.003-9.088 18.432-9.515 7.339 0.256 14.037 4.267 17.749 10.581l128.64 220.501c8.96 15.36 25.6 24.917 43.392 24.917 19.157 0 36.395-10.624 44.928-27.776l135.381-270.891zM42.667-21.333v213.333h938.667v-213.333h-938.667zM277.333 576h128c70.571 0 128 57.429 128 128s-57.429 128-128 128c-55.339 0-102.912-34.901-120.491-85.675-49.579 4.437-92.843-35.456-92.843-84.992 0-47.061 38.272-85.333 85.333-85.333zM277.333 704c5.077 0 10.069-0.981 15.317-2.987 5.973-2.389 12.672-1.835 18.347 1.365 5.589 3.2 9.429 8.747 10.453 15.104 6.613 41.643 41.941 71.851 83.883 71.851 47.061 0 85.333-38.272 85.333-85.333s-38.272-85.333-85.333-85.333h-128c-23.552 0-42.667 19.115-42.667 42.667s19.115 42.667 42.667 42.667z" />
<glyph unicode="&#xe91b;" glyph-name="home" d="M874.667 384c-11.776 0-21.333-9.557-21.333-21.333v-384h-213.333v277.333c0 11.776-9.557 21.333-21.333 21.333h-213.333c-11.776 0-21.333-9.557-21.333-21.333v-277.333h-213.333v405.333c0 11.776-9.557 21.333-21.333 21.333s-21.333-9.557-21.333-21.333v-426.667c0-11.776 9.557-21.333 21.333-21.333h256c11.776 0 21.333 9.557 21.333 21.333v277.333h170.667v-277.333c0-11.776 9.557-21.333 21.333-21.333h256c11.776 0 21.333 9.557 21.333 21.333v405.333c0 11.776-9.557 21.333-21.333 21.333zM1017.771 420.437l-490.667 490.667c-8.32 8.32-21.845 8.32-30.165 0l-490.667-490.667c-8.32-8.32-8.32-21.845 0-30.165s21.845-8.32 30.165 0l475.563 475.563 475.563-475.563c4.181-4.181 9.643-6.229 15.104-6.229s10.923 2.091 15.104 6.229c8.32 8.32 8.32 21.803 0 30.165zM682.667 832h128v-128c0-11.776 9.557-21.333 21.333-21.333s21.333 9.557 21.333 21.333v149.333c0 11.776-9.557 21.333-21.333 21.333h-149.333c-11.776 0-21.333-9.557-21.333-21.333s9.557-21.333 21.333-21.333z" />
<glyph unicode="&#xe91c;" glyph-name="fountain-pen-head-2" d="M576 689.067v57.6h21.333c9.771 0 18.304 6.656 20.693 16.171l42.667 170.667c1.621 6.357 0.171 13.141-3.883 18.304s-10.24 8.192-16.811 8.192h-298.667c-6.571 0-12.757-3.029-16.811-8.192s-5.461-11.947-3.883-18.304l42.667-170.667c2.389-9.515 10.923-16.171 20.693-16.171h21.333v-57.6c-99.285-35.285-170.667-129.877-170.667-241.067 0-133.888 207.445-486.571 216.277-501.504 3.883-6.485 10.837-10.496 18.389-10.496h42.667c7.040 0 13.568 3.456 17.579 9.216 52.309 75.861 217.088 383.403 217.088 502.784 0 111.189-71.381 205.781-170.667 241.067zM368.683 917.333h244.011l-32-128h-180.011l-32 128zM448 746.667h85.333v-46.507c-13.909 2.347-28.117 3.84-42.667 3.84s-28.757-1.493-42.667-3.84v46.507zM490.667 362.667c-23.509 0-42.667 19.115-42.667 42.667s19.157 42.667 42.667 42.667 42.667-19.115 42.667-42.667-19.157-42.667-42.667-42.667zM512-3.2v326.229c36.693 9.557 64 42.667 64 82.304 0 47.061-38.272 85.333-85.333 85.333s-85.333-38.272-85.333-85.333c0-39.637 27.307-72.747 64-82.304v-322.901c-50.987 89.771-192 347.179-192 447.872 0 117.632 95.701 213.333 213.333 213.333s213.333-95.701 213.333-213.333c0-94.336-128.811-347.733-192-451.2z" />
<glyph unicode="&#xe91d;" glyph-name="fountain-pen-head-1" d="M828.843 501.845l-164.437 267.264 80.043 160.043c3.328 6.613 2.944 14.464-0.939 20.736s-10.795 10.112-18.176 10.112h-490.667c-7.765 0-14.891-4.224-18.688-11.008-3.712-6.784-3.541-15.061 0.597-21.632l99.669-159.445-163.755-266.069c-3.797-6.187-4.224-13.867-1.067-20.437l256-533.333c3.541-7.381 11.051-12.075 19.243-12.075h128c8.192 0 15.701 4.693 19.243 12.075l256 533.333c3.115 6.571 2.731 14.251-1.067 20.437zM690.816 917.333l-64-128h-273.664l-80 128h417.664zM490.667 448c-35.285 0-64 28.715-64 64s28.715 64 64 64 64-28.715 64-64-28.715-64-64-64zM541.269-21.333h-29.269v428.843c48.64 9.899 85.333 52.949 85.333 104.491 0 58.837-47.872 106.667-106.667 106.667s-106.667-47.829-106.667-106.667c0-51.541 36.693-94.592 85.333-104.491v-428.843h-29.269l-245.12 510.763 158.293 257.237h274.816l158.293-257.237-245.077-510.763z" />
<glyph unicode="&#xe91e;" glyph-name="eyedropper" d="M746.667 618.667h-64v149.333c0 105.856-76.544 192-170.667 192s-170.667-86.144-170.667-192v-149.333h-64c-11.776 0-21.333-9.557-21.333-21.333s9.557-21.333 21.333-21.333h64v-362.667c0-78.763 42.069-146.133 85.333-175.531v-80.469c0-11.776 9.557-21.333 21.333-21.333h128c11.776 0 21.333 9.557 21.333 21.333v80.469c43.264 29.355 85.333 96.768 85.333 175.531v362.667h64c11.776 0 21.333 9.557 21.333 21.333s-9.557 21.333-21.333 21.333zM384 768c0 82.347 57.429 149.333 128 149.333s128-66.987 128-149.333v-149.333h-256v149.333zM640 213.333c0-73.216-43.179-128.597-73.813-144.597-7.083-3.669-11.52-10.965-11.52-18.901v-71.168h-85.333v71.168c0 7.979-4.437 15.232-11.52 18.901-30.635 16-73.813 71.381-73.813 144.597v64h64c11.776 0 21.333 9.557 21.333 21.333s-9.557 21.333-21.333 21.333h-64v42.667h64c11.776 0 21.333 9.557 21.333 21.333s-9.557 21.333-21.333 21.333h-64v42.667h64c11.776 0 21.333 9.557 21.333 21.333s-9.557 21.333-21.333 21.333h-64v85.333h256v-362.667z" />
<glyph unicode="&#xe91f;" glyph-name="designer-cup" d="M789.333 448h-21.333v64c0 11.776-9.557 21.333-21.333 21.333h-11.776l54.571 144.512c42.283 6.741 73.984 44.843 80.555 99.541 8.32 69.973-26.709 155.861-123.435 179.285-8.491 2.133-17.365-1.28-22.443-8.448-5.035-7.168-5.163-16.683-0.384-23.979 22.528-34.347 8.96-54.699-15.104-85.035-9.216-11.605-17.877-22.528-23.125-34.987-9.984-23.723-10.539-48.683-1.493-70.229 4.267-10.155 10.667-19.285 18.645-27.221l-96.555-173.44h-8.789v405.333c0 11.776-9.557 21.333-21.333 21.333h-170.667c-11.776 0-21.333-9.557-21.333-21.333v-405.333h-8.789l-100.523 181.035c-0.213 0.341-0.64 0.512-0.853 0.853-0.341 0.469-0.384 1.109-0.768 1.579-1.621 2.176-3.627 3.797-5.76 5.12-0.128 0.085-0.213 0.299-0.341 0.384l-0.171 0.085c-0.043 0-0.085 0.043-0.128 0.085l-106.368 63.829c-7.125 4.309-16.085 4.053-22.955-0.683-6.869-4.651-10.411-12.928-9.045-21.12l21.333-128c0.043-0.299 0.256-0.597 0.299-0.896 0.171-0.725 0.427-1.408 0.64-2.091 0.341-1.024 0.512-2.091 0.981-3.072l48.597-97.109h-8.149c-11.776 0-21.333-9.557-21.333-21.333v-469.333c0-58.795 47.829-106.667 106.667-106.667h384c58.837 0 106.667 47.872 106.667 106.667v106.667h21.333c82.347 0 149.333 66.987 149.333 149.333s-66.987 149.333-149.333 149.333zM724.864 787.627c2.944 7.083 9.856 15.829 17.195 25.045 16.256 20.48 38.272 48.299 35.84 84.523 40.021-27.264 54.485-74.581 49.707-114.731-3.499-29.227-19.072-63.317-51.541-63.317-7.68 0-16 1.877-24.832 5.632-13.568 5.717-23.211 14.592-27.819 25.728-4.651 11.008-4.139 23.851 1.451 37.12zM738.859 684.075c2.176-0.853 4.352-1.408 6.528-2.091l-56.149-148.651h-34.304l83.925 150.741zM426.667 917.333h128v-42.667h-64c-11.776 0-21.333-9.557-21.333-21.333s9.557-21.333 21.333-21.333h64v-42.667h-21.333c-11.776 0-21.333-9.557-21.333-21.333s9.557-21.333 21.333-21.333h21.333v-42.667h-64c-11.776 0-21.333-9.557-21.333-21.333s9.557-21.333 21.333-21.333h64v-42.667h-21.333c-11.776 0-21.333-9.557-21.333-21.333s9.557-21.333 21.333-21.333h21.333v-42.667h-128v384zM217.813 702.037l-31.915-23.936-7.936 47.829 39.851-23.893zM197.717 633.643l51.499 38.656 77.184-138.965h-78.549l-50.133 100.309zM725.333 42.667c0-35.285-28.715-64-64-64h-384c-35.285 0-64 28.715-64 64v448h512v-448zM789.333 192h-21.333v213.333h21.333c58.837 0 106.667-47.872 106.667-106.667s-47.829-106.667-106.667-106.667z" />
<glyph unicode="&#xe920;" glyph-name="crop" d="M1017.771 923.563c8.32 8.32 8.32 21.845 0 30.165s-21.845 8.32-30.165 0l-292.437-292.395h-439.168v64c0 11.776-9.557 21.333-21.333 21.333h-128c-11.776 0-21.333-9.557-21.333-21.333v-64h-64c-11.776 0-21.333-9.557-21.333-21.333v-128c0-11.776 9.557-21.333 21.333-21.333h64v-448c0-11.776 9.557-21.333 21.333-21.333h448v-64c0-11.776 9.557-21.333 21.333-21.333h128c11.776 0 21.333 9.557 21.333 21.333v64h64c11.776 0 21.333 9.557 21.333 21.333v128c0 11.776-9.557 21.333-21.333 21.333h-64v439.168l292.437 292.395zM128 704h85.333v-42.667h-85.333v42.667zM42.667 533.333v85.333h640v-426.667h-85.333v320c0 2.773-0.597 5.547-1.621 8.149-2.176 5.248-6.315 9.387-11.563 11.563-2.603 1.067-5.376 1.621-8.149 1.621h-533.333zM256 490.667h268.501l-268.501-268.501v268.501zM554.667 460.501v-268.501h-268.501l268.501 268.501zM597.333-21.333v42.667h85.333v-42.667h-85.333zM768 149.333v-85.333h-640v426.667h85.333v-320c0-2.773 0.597-5.547 1.621-8.149 2.176-5.248 6.315-9.387 11.563-11.563 2.603-1.067 5.376-1.621 8.149-1.621h533.333z" />
<glyph unicode="&#xe921;" glyph-name="cog" d="M1002.667 533.333h-121.813c-8.491 33.707-19.371 71.125-33.152 99.499l86.699 86.656c4.011 4.011 6.229 9.429 6.229 15.104s-2.261 11.093-6.229 15.104l-120.747 120.661c-8.32 8.32-21.845 8.32-30.165 0l-86.741-86.699c-28.331 13.781-65.749 24.619-99.413 33.152v121.856c0 11.776-9.557 21.333-21.333 21.333h-128c-11.776 0-21.333-9.557-21.333-21.333v-121.856c-33.707-8.533-71.125-19.371-99.456-33.152l-86.741 86.699c-8.32 8.32-21.845 8.32-30.165 0l-120.704-120.704c-4.011-3.968-6.272-9.387-6.272-15.061s2.261-11.093 6.272-15.104l86.741-86.699c-13.739-28.288-24.661-65.707-33.237-99.456h-121.771c-11.776 0-21.333-9.557-21.333-21.333v-128c0-11.776 9.557-21.333 21.333-21.333h121.771c8.576-33.749 19.456-71.211 33.195-99.456l-86.699-86.741c-4.011-4.011-6.229-9.429-6.229-15.104s2.261-11.093 6.229-15.104l120.704-120.661c8.021-8.021 22.187-8.021 30.165 0l86.699 86.784c28.288-13.824 65.749-24.747 99.499-33.28v-121.771c0-11.776 9.557-21.333 21.333-21.333h128c11.776 0 21.333 9.557 21.333 21.333v121.771c33.749 8.533 71.168 19.456 99.413 33.195l86.784-86.699c8.32-8.32 21.845-8.32 30.165 0l120.661 120.661c8.32 8.32 8.32 21.845 0 30.165l-86.699 86.741c13.739 28.245 24.661 65.707 33.195 99.456h121.813c11.776 0 21.333 9.557 21.333 21.333v128c0 11.819-9.557 21.376-21.333 21.376zM981.333 405.333h-117.163c-9.856 0-18.432-6.741-20.736-16.341-5.76-23.808-21.12-87.083-40.32-118.485-5.12-8.405-3.84-19.243 3.115-26.197l82.859-82.901-90.496-90.496-82.944 82.859c-6.997 6.997-17.877 8.192-26.197 3.115-31.445-19.243-94.677-34.56-118.485-40.277-9.557-2.347-16.299-10.923-16.299-20.779v-117.163h-85.333v117.163c0 9.813-6.741 18.432-16.299 20.736-23.808 5.76-87.040 21.035-118.528 40.363-8.448 5.12-19.285 3.925-26.24-3.115l-82.859-82.944-90.581 90.496 82.901 82.901c6.997 6.955 8.235 17.792 3.115 26.197-19.2 31.403-34.56 94.72-40.32 118.485-2.261 9.643-10.837 16.384-20.693 16.384h-117.163v85.333h117.163c9.856 0 18.432 6.741 20.736 16.341 5.76 23.765 21.077 86.997 40.32 118.485 5.12 8.405 3.84 19.243-3.115 26.197l-82.944 82.901 90.539 90.539 82.901-82.859c6.955-6.955 17.792-8.149 26.197-3.115 31.659 19.285 94.763 34.517 118.528 40.192 9.6 2.304 16.341 10.88 16.341 20.736v117.248h85.333v-117.248c0-9.856 6.741-18.432 16.341-20.736 37.291-8.96 90.069-22.912 118.485-40.192 8.363-5.035 19.2-3.84 26.197 3.115l82.901 82.859 90.539-90.539-82.859-82.816c-6.955-6.955-8.235-17.792-3.115-26.197 19.328-31.659 34.56-94.805 40.277-118.528 2.261-9.643 10.837-16.384 20.693-16.384h117.205v-85.333zM512 661.333c-117.632 0-213.333-95.701-213.333-213.333s95.701-213.333 213.333-213.333 213.333 95.701 213.333 213.333-95.701 213.333-213.333 213.333zM512 277.333c-94.123 0-170.667 76.544-170.667 170.667s76.544 170.667 170.667 170.667 170.667-76.544 170.667-170.667-76.544-170.667-170.667-170.667z" />
<glyph unicode="&#xe922;" glyph-name="bubble-chat" d="M960 874.667h-896c-35.285 0-64-28.715-64-64v-554.667c0-35.285 28.715-64 64-64h64v-149.333c0-8.619 5.205-16.427 13.184-19.712 2.645-1.109 5.419-1.621 8.149-1.621 5.547 0 11.008 2.176 15.104 6.229l164.395 164.437h631.168c35.285 0 64 28.715 64 64v554.667c0 35.285-28.715 64-64 64zM981.333 256c0-11.776-9.557-21.333-21.333-21.333h-640c-5.675 0-11.093-2.261-15.104-6.229l-134.229-134.272v119.168c0 11.776-9.557 21.333-21.333 21.333h-85.333c-11.776 0-21.333 9.557-21.333 21.333v554.667c0 11.776 9.557 21.333 21.333 21.333h896c11.776 0 21.333-9.557 21.333-21.333v-554.667zM405.333 533.333c0-23.564-19.103-42.667-42.667-42.667s-42.667 19.103-42.667 42.667c0 23.564 19.103 42.667 42.667 42.667s42.667-19.103 42.667-42.667zM746.667 533.333c0-23.564-19.103-42.667-42.667-42.667s-42.667 19.103-42.667 42.667c0 23.564 19.103 42.667 42.667 42.667s42.667-19.103 42.667-42.667zM576 533.333c0-23.564-19.103-42.667-42.667-42.667s-42.667 19.103-42.667 42.667c0 23.564 19.103 42.667 42.667 42.667s42.667-19.103 42.667-42.667z" />
<glyph unicode="&#xe923;" glyph-name="book" d="M971.221 871.509c-6.229 3.883-14.165 4.267-20.736 0.939l-417.152-208.555-417.109 208.555c-6.613 3.328-14.507 2.944-20.736-0.939-6.315-3.883-10.155-10.752-10.155-18.133v-661.376c0-8.064 4.565-15.445 11.776-19.072l426.667-213.333c0.171-0.085 0.427-0.043 0.597-0.128 2.731-1.28 5.717-2.091 8.96-2.091s6.229 0.853 8.96 2.091c0.171 0.085 0.427 0.043 0.597 0.128l426.667 213.333c7.211 3.627 11.776 11.008 11.776 19.072v661.376c0 7.381-3.84 14.251-10.112 18.133zM128 818.859l384-192v-613.675l-384 192v613.675zM938.667 205.184l-384-192v613.675l384 192v-613.675zM182.272 899.371l341.333-172.757c2.987-1.536 6.315-2.304 9.643-2.304s6.613 0.768 9.643 2.304l341.333 172.757c10.539 5.333 14.763 18.176 9.429 28.672-5.333 10.539-18.219 14.72-28.672 9.429l-331.691-167.893-331.733 167.893c-10.453 5.248-23.339 1.152-28.672-9.429-5.333-10.496-1.152-23.339 9.387-28.672z" />
<glyph unicode="&#xe924;" glyph-name="resize" d="M767.264 33.12v61.824h127.616v127.616h65.824v-189.44h-193.44zM894.88 769.056h-127.616v61.824h193.44v-189.44h-65.824v127.616zM97.12 641.44h-65.792v189.44h193.44v-61.824h-127.648v-127.616zM158.944 703.264h674.112v-542.496h-674.112v542.496zM224.736 222.56h542.496v418.88h-542.496v-418.88zM288.576 575.616h416.864v-287.264h-416.864v287.264zM97.12 94.944h127.616v-61.824h-193.408v189.44h65.824v-127.616z" />
<glyph unicode="&#xe925;" glyph-name="square" d="M896 192v-128h-128v32h-512v-32h-128v128h32v512h-32v128h128v-32h512v32h128v-128h-32v-512h32zM160 96h64v64h-64v-64zM224 800h-64v-64h64v64zM768 736h-512v-32h-32v-512h32v-32h512v32h32v512h-32v32zM864 800h-64v-64h64v64zM800 160v-64h64v64h-64z" />
<glyph unicode="&#xe926;" glyph-name="square2" d="M896 192v-128h-128v32h-192v-32h-128v32h-192v-32h-128v128h32v192h-32v128h32v192h-32v128h128v-32h192v32h128v-32h192v32h128v-128h-32v-192h32v-128h-32v-192h32zM480 96h64v64h-64v-64zM160 96h64v64h-64v-64zM160 416h64v64h-64v-64zM224 800h-64v-64h64v64zM544 800h-64v-64h64v64zM768 736h-192v-32h-128v32h-192v-32h-32v-192h32v-128h-32v-192h32v-32h192v32h128v-32h192v32h32v192h-32v128h32v192h-32v32zM864 800h-64v-64h64v64zM864 480h-64v-64h64v64zM800 160v-64h64v64h-64z" />
<glyph unicode="&#xe927;" glyph-name="circle" d="M923.424 384c-25.6-180.8-167.264-324-347.424-351.904v-32.096h-128v32.096c-180.16 27.872-321.824 171.104-347.456 351.904h-36.544v128h38.016c29.568 175.776 169.376 313.92 345.984 341.248v42.752h128v-42.752c176.64-27.328 316.384-165.472 345.984-341.248h38.016v-128h-36.576zM480 32h64v64h-64v-64zM96 480v-64h64v64h-64zM544 864h-64v-64h64v64zM576 804.736v-36.736h-128v36.736c-150.080-26.368-268.832-143.456-297.344-292.736h41.344v-128h-43.072c24.8-154.304 145.44-276.416 299.072-303.392v47.392h128v-47.392c153.632 27.008 274.272 149.088 299.072 303.392h-43.072v128h41.344c-28.544 149.28-147.264 266.368-297.344 292.736zM928 480h-64v-64h64v64z" />
<glyph unicode="&#xe928;" glyph-name="info" d="M519.904 808.544c0-53.888 40.672-90.4 90.88-90.4s90.944 36.544 90.944 90.4c0 53.92-40.704 90.432-90.944 90.432-50.176 0-90.88-36.512-90.88-90.432zM323.072 500c0-10.688-1.952-37.216 0.256-53.184l79.328 95.456c16.416 17.984 35.392 30.56 45.088 27.168 9.728-3.392 15.040-14.816 11.872-25.44l-131.296-434.88c-15.136-50.816 13.472-100.736 83.168-112.128 102.048 0 162.688 69.056 222.336 158.56 0 10.688 3.552 38.816 1.408 54.816l-79.328-95.424c-16.448-17.984-36.832-30.56-46.56-27.2-8.96 3.136-14.208 13.12-12.448 23.072l132.224 436.896c11.008 55.488-18.88 105.984-82.048 112.448-66.432-0.032-164.352-70.688-224-160.16z" />
<glyph unicode="&#xe929;" glyph-name="arrow-down" d="M840.533 456.534c-17.067 17.067-42.667 17.067-59.733 0l-226.133-226.133v494.933c0 25.6-17.067 42.667-42.667 42.667s-42.667-17.067-42.667-42.667v-494.933l-226.133 226.133c-17.067 17.067-42.667 17.067-59.733 0s-17.067-42.667 0-59.733l298.667-298.667c4.267-4.267 8.533-8.533 12.8-8.533 4.267-4.267 12.8-4.267 17.067-4.267s12.8 0 17.067 4.267c4.267 4.267 8.533 4.267 12.8 8.533l298.667 298.667c17.067 17.067 17.067 42.667 0 59.733z" />
<glyph unicode="&#xe92a;" glyph-name="arrow-down-circle" d="M512 896c-260.267 0-469.333-209.067-469.333-469.333s209.067-469.333 469.333-469.333 469.333 209.067 469.333 469.333-209.067 469.333-469.333 469.333zM512 42.667c-213.333 0-384 170.667-384 384s170.667 384 384 384c213.333 0 384-170.667 384-384s-170.667-384-384-384zM652.8 456.534l-98.133-98.133v238.933c0 25.6-17.067 42.667-42.667 42.667s-42.667-17.067-42.667-42.667v-238.933l-98.133 98.133c-17.067 17.067-42.667 17.067-59.733 0s-17.067-42.667 0-59.733l170.667-170.667c4.267-4.267 8.533-8.533 12.8-8.533 4.267-4.267 12.8-4.267 17.067-4.267s12.8 0 17.067 4.267c4.267 4.267 8.533 4.267 12.8 8.533l170.667 170.667c17.067 17.067 17.067 42.667 0 59.733s-42.667 17.067-59.733 0z" />
<glyph unicode="&#xe92b;" glyph-name="arrow-left" d="M810.667 469.334h-494.933l226.133 226.133c17.067 17.067 17.067 42.667 0 59.733s-42.667 17.067-59.733 0l-298.667-298.667c-4.267-4.267-8.533-8.533-8.533-12.8-4.267-8.533-4.267-21.333 0-34.133 4.267-4.267 4.267-8.533 8.533-12.8l298.667-298.667c8.533-8.533 21.333-12.8 29.867-12.8s21.333 4.267 29.867 12.8c17.067 17.067 17.067 42.667 0 59.733l-226.133 226.133h494.933c25.6 0 42.667 17.067 42.667 42.667s-17.067 42.667-42.667 42.667z" />
<glyph unicode="&#xe92c;" glyph-name="arrow-left-circle" d="M512 896c-260.267 0-469.333-209.067-469.333-469.333s209.067-469.333 469.333-469.333 469.333 209.067 469.333 469.333-209.067 469.333-469.333 469.333zM512 42.667c-213.333 0-384 170.667-384 384s170.667 384 384 384c213.333 0 384-170.667 384-384s-170.667-384-384-384zM682.667 469.334h-238.933l98.133 98.133c17.067 17.067 17.067 42.667 0 59.733s-42.667 17.067-59.733 0l-170.667-170.667c-4.267-4.267-8.533-8.533-8.533-12.8-4.267-8.533-4.267-21.333 0-34.133 4.267-4.267 4.267-8.533 8.533-12.8l170.667-170.667c8.533-8.533 21.333-12.8 29.867-12.8s21.333 4.267 29.867 12.8c17.067 17.067 17.067 42.667 0 59.733l-98.133 98.133h238.933c25.6 0 42.667 17.067 42.667 42.667s-17.067 42.667-42.667 42.667z" />
<glyph unicode="&#xe92d;" glyph-name="arrow-right" d="M849.067 409.6c4.267 8.533 4.267 21.333 0 34.133-4.267 4.267-4.267 8.533-8.533 12.8l-298.667 298.667c-17.067 17.067-42.667 17.067-59.733 0s-17.067-42.667 0-59.733l226.133-226.133h-494.933c-25.6 0-42.667-17.067-42.667-42.667s17.067-42.667 42.667-42.667h494.933l-226.133-226.133c-17.067-17.067-17.067-42.667 0-59.733 8.533-8.533 21.333-12.8 29.867-12.8s21.333 4.267 29.867 12.8l298.667 298.667c4.267 4.267 8.533 8.533 8.533 12.8z" />
<glyph unicode="&#xe92e;" glyph-name="arrow-right-circle" d="M512 896c-260.267 0-469.333-209.067-469.333-469.333s209.067-469.333 469.333-469.333 469.333 209.067 469.333 469.333-209.067 469.333-469.333 469.333zM512 42.667c-213.333 0-384 170.667-384 384s170.667 384 384 384c213.333 0 384-170.667 384-384s-170.667-384-384-384zM721.067 443.734c-4.267 4.267-4.267 8.533-8.533 12.8l-170.667 170.667c-17.067 17.067-42.667 17.067-59.733 0s-17.067-42.667 0-59.733l98.133-98.133h-238.933c-25.6 0-42.667-17.067-42.667-42.667s17.067-42.667 42.667-42.667h238.933l-98.133-98.133c-17.067-17.067-17.067-42.667 0-59.733 8.533-8.533 21.333-12.8 29.867-12.8s21.333 4.267 29.867 12.8l170.667 170.667c4.267 4.267 8.533 8.533 8.533 12.8 4.267 12.8 4.267 21.333 0 34.133z" />
<glyph unicode="&#xe92f;" glyph-name="arrow-up" d="M840.533 456.534l-298.667 298.667c-4.267 4.267-8.533 8.533-12.8 8.533-8.533 4.267-21.333 4.267-34.133 0-4.267-4.267-8.533-4.267-12.8-8.533l-298.667-298.667c-17.067-17.067-17.067-42.667 0-59.733s42.667-17.067 59.733 0l226.133 226.133v-494.933c0-25.6 17.067-42.667 42.667-42.667s42.667 17.067 42.667 42.667v494.933l226.133-226.133c8.533-8.533 21.333-12.8 29.867-12.8s21.333 4.267 29.867 12.8c17.067 17.067 17.067 42.667 0 59.733z" />
<glyph unicode="&#xe930;" glyph-name="arrow-up-circle" d="M512 896c-260.267 0-469.333-209.067-469.333-469.333s209.067-469.333 469.333-469.333 469.333 209.067 469.333 469.333-209.067 469.333-469.333 469.333zM512 42.667c-213.333 0-384 170.667-384 384s170.667 384 384 384c213.333 0 384-170.667 384-384s-170.667-384-384-384zM541.867 627.2c-4.267 4.267-8.533 8.533-12.8 8.533-8.533 4.267-21.333 4.267-34.133 0-4.267-4.267-8.533-4.267-12.8-8.533l-170.667-170.667c-17.067-17.067-17.067-42.667 0-59.733s42.667-17.067 59.733 0l98.133 98.133v-238.933c0-25.6 17.067-42.667 42.667-42.667s42.667 17.067 42.667 42.667v238.933l98.133-98.133c8.533-8.533 21.333-12.8 29.867-12.8s21.333 4.267 29.867 12.8c17.067 17.067 17.067 42.667 0 59.733l-170.667 170.667z" />
<glyph unicode="&#xe931;" glyph-name="pause-circle" d="M512 896c-260.267 0-469.333-209.067-469.333-469.333s209.067-469.333 469.333-469.333 469.333 209.067 469.333 469.333-209.067 469.333-469.333 469.333zM512 42.667c-213.333 0-384 170.667-384 384s170.667 384 384 384c213.333 0 384-170.667 384-384s-170.667-384-384-384zM426.667 597.334c-25.6 0-42.667-17.067-42.667-42.667v-256c0-25.6 17.067-42.667 42.667-42.667s42.667 17.067 42.667 42.667v256c0 25.6-17.067 42.667-42.667 42.667zM597.333 597.334c-25.6 0-42.667-17.067-42.667-42.667v-256c0-25.6 17.067-42.667 42.667-42.667s42.667 17.067 42.667 42.667v256c0 25.6-17.067 42.667-42.667 42.667z" />
<glyph unicode="&#xe932;" glyph-name="arrow-outline-down" d="M512-51.2c-282.77 0-512 229.23-512 512s229.23 512 512 512v0c282.77 0 512-229.23 512-512s-229.23-512-512-512v0zM512 51.2c226.216 0 409.6 183.384 409.6 409.6s-183.384 409.6-409.6 409.6v0c-226.216 0-409.6-183.384-409.6-409.6s183.384-409.6 409.6-409.6v0zM409.6 460.8v256h204.8v-256h153.6l-256-256-256 256h153.6z" />
<glyph unicode="&#xe933;" glyph-name="arrow-outline-left" d="M0 460.8c0 282.77 229.23 512 512 512s512-229.23 512-512v0c0-282.77-229.23-512-512-512s-512 229.23-512 512v0zM102.4 460.8c0-226.216 183.384-409.6 409.6-409.6s409.6 183.384 409.6 409.6v0c0 226.216-183.384 409.6-409.6 409.6s-409.6-183.384-409.6-409.6v0zM512 563.2h256v-204.8h-256v-153.6l-256 256 256 256v-153.6z" />
<glyph unicode="&#xe934;" glyph-name="arrow-outline-right" d="M1024 460.8c0-282.77-229.23-512-512-512s-512 229.23-512 512v0c0 282.77 229.23 512 512 512s512-229.23 512-512v0zM921.6 460.8c0 226.216-183.384 409.6-409.6 409.6s-409.6-183.384-409.6-409.6v0c0-226.216 183.384-409.6 409.6-409.6s409.6 183.384 409.6 409.6v0zM512 358.4h-256v204.8h256v153.6l256-256-256-256v153.6z" />
<glyph unicode="&#xe935;" glyph-name="arrow-outline-up" d="M512 972.8c282.77 0 512-229.23 512-512s-229.23-512-512-512v0c-282.77 0-512 229.23-512 512s229.23 512 512 512v0zM512 870.4c-226.216 0-409.6-183.384-409.6-409.6s183.384-409.6 409.6-409.6v0c226.216 0 409.6 183.384 409.6 409.6s-183.384 409.6-409.6 409.6v0zM614.4 460.8v-256h-204.8v256h-153.6l256 256 256-256h-153.6z" />
<glyph unicode="&#xe936;" glyph-name="arrow-right2" d="M828.006 512l-310.835 310.835 72.397 72.397 434.432-434.432-434.432-434.432-72.397 72.397 310.835 310.835h-828.006v102.4z" />
<glyph unicode="&#xe937;" glyph-name="arrow-thin-down" d="M460.8 144.794l-310.835 310.835-72.397-72.397 434.432-434.432 434.432 434.432-72.397 72.397-310.835-310.835v828.006h-102.4z" />
<glyph unicode="&#xe938;" glyph-name="arrow-thin-left" d="M195.994 512l310.835 310.835-72.397 72.397-434.432-434.432 434.432-434.432 72.397 72.397-310.835 310.835h828.006v102.4h-828.006z" />
<glyph unicode="&#xe939;" glyph-name="arrow-thin-right" d="M828.006 512l-310.835 310.835 72.397 72.397 434.432-434.432-434.432-434.432-72.397 72.397 310.835 310.835h-828.006v102.4z" />
<glyph unicode="&#xe93a;" glyph-name="arrow-thin-up" d="M460.8 776.806l-310.835-310.835-72.397 72.397 434.432 434.432 434.432-434.432-72.397-72.397-310.835 310.835v-828.006h-102.4v828.006z" />
<glyph unicode="&#xe93b;" glyph-name="check" d="M883.2 712.534c-17.067 17.067-42.667 17.067-59.733 0l-439.467-439.467-183.467 183.467c-17.067 17.067-42.667 17.067-59.733 0s-17.067-42.667 0-59.733l213.333-213.333c8.533-8.533 17.067-12.8 29.867-12.8s21.333 4.267 29.867 12.8l469.333 469.333c17.067 17.067 17.067 42.667 0 59.733z" />
<glyph unicode="&#xe93c;" glyph-name="chevron-down" d="M797.867 584.534c-17.067 17.067-42.667 17.067-59.733 0l-226.133-226.133-226.133 226.133c-17.067 17.067-42.667 17.067-59.733 0s-17.067-42.667 0-59.733l256-256c8.533-8.533 21.333-12.8 29.867-12.8s21.333 4.267 29.867 12.8l256 256c17.067 17.067 17.067 42.667 0 59.733z" />
<glyph unicode="&#xe93d;" glyph-name="chevron-left" d="M443.733 426.667l226.133 226.133c17.067 17.067 17.067 42.667 0 59.733s-42.667 17.067-59.733 0l-256-256c-17.067-17.067-17.067-42.667 0-59.733l256-256c8.533-8.533 21.333-12.8 29.867-12.8s21.333 4.267 29.867 12.8c17.067 17.067 17.067 42.667 0 59.733l-226.133 226.133z" />
<glyph unicode="&#xe93e;" glyph-name="chevron-right" d="M669.867 456.534l-256 256c-17.067 17.067-42.667 17.067-59.733 0s-17.067-42.667 0-59.733l226.133-226.133-226.133-226.133c-17.067-17.067-17.067-42.667 0-59.733 8.533-8.533 17.067-12.8 29.867-12.8s21.333 4.267 29.867 12.8l256 256c17.067 17.067 17.067 42.667 0 59.733z" />
<glyph unicode="&#xe93f;" glyph-name="chevron-up" d="M797.867 328.534l-256 256c-17.067 17.067-42.667 17.067-59.733 0l-256-256c-17.067-17.067-17.067-42.667 0-59.733s42.667-17.067 59.733 0l226.133 226.133 226.133-226.133c8.533-8.533 21.333-12.8 29.867-12.8s21.333 4.267 29.867 12.8c17.067 17.067 17.067 42.667 0 59.733z" />
<glyph unicode="&#xe940;" glyph-name="chevrons-left" d="M315.733 426.667l183.467 183.467c17.067 17.067 17.067 42.667 0 59.733s-42.667 17.067-59.733 0l-213.333-213.333c-17.067-17.067-17.067-42.667 0-59.733l213.333-213.333c8.533-8.533 21.333-12.8 29.867-12.8s21.333 4.267 29.867 12.8c17.067 17.067 17.067 42.667 0 59.733l-183.467 183.467zM614.4 426.667l183.467 183.467c17.067 17.067 17.067 42.667 0 59.733s-42.667 17.067-59.733 0l-213.333-213.333c-17.067-17.067-17.067-42.667 0-59.733l213.333-213.333c8.533-8.533 21.333-12.8 29.867-12.8s21.333 4.267 29.867 12.8c17.067 17.067 17.067 42.667 0 59.733l-183.467 183.467z" />
<glyph unicode="&#xe941;" glyph-name="chevrons-right" d="M797.867 456.534l-213.333 213.333c-17.067 17.067-42.667 17.067-59.733 0s-17.067-42.667 0-59.733l183.467-183.467-183.467-183.467c-17.067-17.067-17.067-42.667 0-59.733 8.533-8.533 21.333-12.8 29.867-12.8s21.333 4.267 29.867 12.8l213.333 213.333c17.067 17.067 17.067 42.667 0 59.733zM499.2 456.534l-213.333 213.333c-17.067 17.067-42.667 17.067-59.733 0s-17.067-42.667 0-59.733l183.467-183.467-183.467-183.467c-17.067-17.067-17.067-42.667 0-59.733 8.533-8.533 17.067-12.8 29.867-12.8s21.333 4.267 29.867 12.8l213.333 213.333c17.067 17.067 17.067 42.667 0 59.733z" />
<glyph unicode="&#xe942;" glyph-name="minimize-2" d="M443.733 379.734c-4.267 4.267-12.8 4.267-17.067 4.267h-256c-25.6 0-42.667-17.067-42.667-42.667s17.067-42.667 42.667-42.667h153.6l-226.133-226.133c-17.067-17.067-17.067-42.667 0-59.733 8.533-8.533 17.067-12.8 29.867-12.8s21.333 4.267 29.867 12.8l226.133 226.133v-153.6c0-25.6 17.067-42.667 42.667-42.667s42.667 17.067 42.667 42.667v256c0 4.267 0 12.8-4.267 17.067-4.267 8.533-12.8 17.067-21.333 21.333zM925.867 840.534c-17.067 17.067-42.667 17.067-59.733 0l-226.133-226.133v153.6c0 25.6-17.067 42.667-42.667 42.667s-42.667-17.067-42.667-42.667v-256c0-4.267 0-12.8 4.267-17.067 4.267-8.533 12.8-17.067 21.333-21.333 4.267-4.267 12.8-4.267 17.067-4.267h256c25.6 0 42.667 17.067 42.667 42.667s-17.067 42.667-42.667 42.667h-153.6l226.133 226.133c17.067 17.067 17.067 42.667 0 59.733z" />
<glyph unicode="&#xe943;" glyph-name="x" d="M571.733 426.667l226.133 226.133c17.067 17.067 17.067 42.667 0 59.733s-42.667 17.067-59.733 0l-226.133-226.133-226.133 226.133c-17.067 17.067-42.667 17.067-59.733 0s-17.067-42.667 0-59.733l226.133-226.133-226.133-226.133c-17.067-17.067-17.067-42.667 0-59.733 8.533-8.533 17.067-12.8 29.867-12.8s21.333 4.267 29.867 12.8l226.133 226.133 226.133-226.133c8.533-8.533 21.333-12.8 29.867-12.8s21.333 4.267 29.867 12.8c17.067 17.067 17.067 42.667 0 59.733l-226.133 226.133z" />
<glyph unicode="&#xe944;" glyph-name="basic_share" d="M816 960c-114.688 0-208-93.312-208-208 0-43.232 13.28-83.408 35.936-116.704l-346.304-220.384c-31.648 30.32-74.448 49.088-121.632 49.088-97.040 0-176-78.96-176-176s78.96-176 176-176c66.144 0 123.824 36.72 153.888 90.816l294.352-117.744c-0.032-1.696-0.24-3.376-0.24-5.072 0-79.408 64.592-144 144-144s144 64.592 144 144-64.592 144-144 144c-66.384 0-122.272-45.216-138.864-106.416l-286.384 114.544c5.904 17.584 9.248 36.32 9.248 55.872 0 38.24-12.384 73.568-33.184 102.448l345.392 219.792c38-40.64 91.904-66.24 151.792-66.24 114.688 0 208 93.312 208 208s-93.312 208-208 208zM768 192c61.744 0 112-50.256 112-112s-50.256-112-112-112-112 50.256-112 112 50.256 112 112 112zM176 144c-79.408 0-144 64.592-144 144s64.592 144 144 144 144-64.592 144-144-64.592-144-144-144zM816 576c-97.040 0-176 78.96-176 176s78.96 176 176 176 176-78.96 176-176-78.96-176-176-176z" />
<glyph unicode="&#xe945;" glyph-name="plus" d="M810.667 469.334h-256v256c0 25.6-17.067 42.667-42.667 42.667s-42.667-17.067-42.667-42.667v-256h-256c-25.6 0-42.667-17.067-42.667-42.667s17.067-42.667 42.667-42.667h256v-256c0-25.6 17.067-42.667 42.667-42.667s42.667 17.067 42.667 42.667v256h256c25.6 0 42.667 17.067 42.667 42.667s-17.067 42.667-42.667 42.667z" />
<glyph unicode="&#xe946;" glyph-name="save" d="M925.867 627.2l-213.333 213.333c-8.533 8.533-17.067 12.8-29.867 12.8h-469.333c-72.533 0-128-55.467-128-128v-597.333c0-72.533 55.467-128 128-128h597.333c72.533 0 128 55.467 128 128v469.333c0 12.8-4.267 21.333-12.8 29.867zM682.667 85.334h-341.333v256h341.333v-256zM853.333 128c0-25.6-17.067-42.667-42.667-42.667h-42.667v298.667c0 25.6-17.067 42.667-42.667 42.667h-426.667c-25.6 0-42.667-17.067-42.667-42.667v-298.667h-42.667c-25.6 0-42.667 17.067-42.667 42.667v597.333c0 25.6 17.067 42.667 42.667 42.667h42.667v-170.667c0-25.6 17.067-42.667 42.667-42.667h341.333c25.6 0 42.667 17.067 42.667 42.667s-17.067 42.667-42.667 42.667h-298.667v128h324.267l187.733-187.733v-452.267z" />
<glyph unicode="&#xe947;" glyph-name="copy" d="M853.333 597.334h-384c-72.533 0-128-55.467-128-128v-384c0-72.533 55.467-128 128-128h384c72.533 0 128 55.467 128 128v384c0 72.533-55.467 128-128 128zM896 85.334c0-25.6-17.067-42.667-42.667-42.667h-384c-25.6 0-42.667 17.067-42.667 42.667v384c0 25.6 17.067 42.667 42.667 42.667h384c25.6 0 42.667-17.067 42.667-42.667v-384zM213.333 341.334h-42.667c-25.6 0-42.667 17.067-42.667 42.667v384c0 25.6 17.067 42.667 42.667 42.667h384c25.6 0 42.667-17.067 42.667-42.667v-42.667c0-25.6 17.067-42.667 42.667-42.667s42.667 17.067 42.667 42.667v42.667c0 72.533-55.467 128-128 128h-384c-72.533 0-128-55.467-128-128v-384c0-72.533 55.467-128 128-128h42.667c25.6 0 42.667 17.067 42.667 42.667s-17.067 42.667-42.667 42.667z" />
<glyph unicode="&#xe948;" glyph-name="facebook" d="M768 640c25.6 0 42.667 17.067 42.667 42.667v170.667c0 25.6-17.067 42.667-42.667 42.667h-128c-140.8 0-256-115.2-256-256v-85.333h-85.333c-25.6 0-42.667-17.067-42.667-42.667v-170.667c0-25.6 17.067-42.667 42.667-42.667h85.333v-298.667c0-25.6 17.067-42.667 42.667-42.667h170.667c25.6 0 42.667 17.067 42.667 42.667v298.667h85.333c21.333 0 38.4 12.8 42.667 34.133l42.667 170.667c4.267 12.8 0 25.6-8.533 38.4s-21.333 12.8-34.133 12.8h-128v85.333h128zM597.333 469.334h115.2l-21.333-85.333h-93.867c-25.6 0-42.667-17.067-42.667-42.667v-298.667h-85.333v298.667c0 25.6-17.067 42.667-42.667 42.667h-85.333v85.333h85.333c25.6 0 42.667 17.067 42.667 42.667v128c0 93.867 76.8 170.667 170.667 170.667h85.333v-85.333h-85.333c-46.933 0-85.333-38.4-85.333-85.333v-128c0-25.6 17.067-42.667 42.667-42.667z" />
<glyph unicode="&#xe949;" glyph-name="twitter" d="M1006.933 844.8c-12.8 8.533-34.133 8.533-46.933 0-29.867-21.333-64-38.4-98.133-51.2-85.333 76.8-217.6 81.067-307.2 4.267-55.467-46.933-85.333-110.933-85.333-179.2-123.733 8.533-234.667 72.533-307.2 174.933-8.533 12.8-21.333 17.067-38.4 17.067s-29.867-12.8-34.133-25.6c-4.267-4.267-46.933-106.667-42.667-230.4 4.267-106.667 46.933-243.2 204.8-341.333-64-29.867-136.533-42.667-209.067-42.667-17.067 0-38.4-12.8-42.667-29.867s4.267-38.4 21.333-46.933c106.667-59.733 221.867-89.6 328.533-89.6s209.067 25.6 302.933 81.067c183.467 102.4 285.867 298.667 285.867 533.333 0 8.533 0 12.8 0 21.333 42.667 46.933 72.533 102.4 85.333 162.133 4.267 17.067-4.267 34.133-17.067 42.667zM861.867 682.667c-8.533-8.533-12.8-25.6-12.8-38.4 4.267-8.533 4.267-17.067 4.267-25.6 0-204.8-89.6-371.2-243.2-460.8-119.467-68.267-260.267-85.333-401.067-51.2 55.467 17.067 106.667 38.4 153.6 72.533 17.067 8.533 21.333 21.333 21.333 38.4s-12.8 29.867-25.6 34.133c-247.467 110.933-238.933 320-213.333 426.667 93.867-93.867 226.133-149.333 366.933-145.067 21.333 0 42.667 21.333 42.667 42.667v42.667c0 42.667 17.067 85.333 51.2 115.2 59.733 55.467 157.867 46.933 209.067-12.8 12.8-12.8 29.867-17.067 42.667-12.8 8.533 4.267 21.333 4.267 29.867 8.533-8.533-12.8-17.067-21.333-25.6-34.133z" />
</font>
</defs>
</svg>
