<?xml version="1.0" encoding="utf-8"?>
<!-- Generator: Adobe Illustrator 17.0.0, SVG Export Plug-In . SVG Version: 6.00 Build 0)  -->
<!DOCTYPE svg PUBLIC "-//W3C//DTD SVG 1.1//EN" "http://www.w3.org/Graphics/SVG/1.1/DTD/svg11.dtd">
<svg version="1.1" xmlns="http://www.w3.org/2000/svg" xmlns:xlink="http://www.w3.org/1999/xlink" x="0px" y="0px"
	 width="438.266px" height="263.965px" viewBox="0 0 438.266 263.965" enable-background="new 0 0 438.266 263.965"
	 xml:space="preserve">
<g id="Layer_2" display="none">
	<rect x="-88.705" y="-167.72" display="inline" fill="#A41D21" width="612" height="575"/>
</g>
<g id="Layer_1">
	<g>
		<g>
			<path fill="#EB1D24" d="M283.957,161.1c0,2.018,0.589,3.822,1.767,5.412s2.738,3.065,4.682,4.426
				c1.943,1.361,4.146,2.652,6.609,3.876s4.987,2.484,7.573,3.784c2.586,1.299,5.11,2.69,7.573,4.174
				c2.463,1.482,4.666,3.157,6.609,5.022s3.504,3.975,4.682,6.329s1.768,5.045,1.768,8.072c0,2.754-0.444,5.284-1.331,7.594
				c-0.888,2.31-2.104,4.382-3.649,6.217s-3.373,3.456-5.484,4.863c-2.111,1.406-4.392,2.568-6.839,3.486
				c-2.448,0.918-5.019,1.613-7.711,2.088c-2.693,0.474-5.401,0.711-8.124,0.711c-3.825,0-7.543-0.467-11.153-1.4
				c-3.611-0.934-6.824-2.34-9.639-4.223c-2.815-1.881-5.072-4.237-6.771-7.068c-1.698-2.829-2.547-6.142-2.547-9.937
				c0-1.958,0.313-3.679,0.94-5.163s1.407-2.724,2.341-3.719c0.934-0.993,1.951-1.744,3.053-2.248
				c1.102-0.506,2.126-0.758,3.075-0.758c0.979,0,1.797,0.269,2.455,0.803c0.658,0.536,0.987,1.37,0.987,2.502
				c0,0.521-0.059,1.071-0.177,1.652c-0.117,0.582-0.242,1.217-0.374,1.904c-0.132,0.689-0.257,1.446-0.375,2.272
				c-0.117,0.826-0.176,1.729-0.176,2.708c0,2.143,0.487,3.993,1.464,5.554c0.978,1.561,2.273,2.846,3.892,3.855
				s3.479,1.76,5.585,2.249c2.106,0.49,4.287,0.734,6.547,0.734c2.662,0,5.324-0.32,7.986-0.963s5.049-1.59,7.16-2.844
				s3.824-2.79,5.141-4.609c1.315-1.819,1.974-3.906,1.974-6.262c0-2.171-0.59-4.112-1.768-5.824
				c-1.178-1.713-2.738-3.295-4.682-4.747s-4.153-2.82-6.632-4.105c-2.479-1.284-5.003-2.584-7.573-3.899
				c-2.57-1.314-5.092-2.697-7.563-4.149s-4.677-3.051-6.614-4.793c-1.938-1.743-3.494-3.692-4.669-5.849s-1.762-4.609-1.762-7.361
				c0-2.575,0.618-5.111,1.855-7.61c1.237-2.498,3.102-4.736,5.592-6.714c2.489-1.978,5.598-3.579,9.325-4.805
				c3.728-1.227,8.097-1.84,13.107-1.84c3.182,0,6.295,0.475,9.34,1.423c3.045,0.949,5.761,2.295,8.147,4.039
				s4.307,3.825,5.76,6.242c1.453,2.418,2.181,5.095,2.181,8.032c0,1.744-0.299,3.534-0.896,5.37s-1.553,3.749-2.868,5.737
				c-1.285,1.928-2.686,3.358-4.2,4.291c-1.515,0.935-2.884,1.4-4.107,1.4c-0.918,0-1.668-0.267-2.249-0.802
				c-0.582-0.534-0.872-1.336-0.872-2.405c0-0.794,0.185-1.733,0.556-2.817c0.37-1.085,1.003-2.329,1.899-3.734
				c0.834-1.345,1.452-2.604,1.854-3.78c0.401-1.177,0.603-2.268,0.603-3.276c0-1.558-0.423-2.925-1.266-4.101
				c-0.845-1.176-2.011-2.161-3.498-2.955c-1.488-0.794-3.275-1.39-5.361-1.787c-2.087-0.397-4.373-0.596-6.857-0.596
				c-2.754,0-5.148,0.313-7.184,0.94s-3.733,1.437-5.095,2.431s-2.371,2.103-3.029,3.326
				C284.285,158.7,283.957,159.908,283.957,161.1z"/>
			<path fill="#EB1D24" d="M363.224,211.503c-1.102,1.01-2.472,2.089-4.108,3.235c-1.637,1.148-3.404,2.203-5.301,3.168
				c-1.897,0.963-3.833,1.767-5.807,2.409s-3.848,0.964-5.622,0.964c-1.592,0-2.931-0.222-4.017-0.666
				c-1.086-0.442-1.966-1.063-2.639-1.858c-0.674-0.795-1.155-1.767-1.446-2.915c-0.291-1.146-0.436-2.409-0.436-3.786
				c0-1.928,0.214-4.177,0.643-6.747c0.882-5.316,1.448-8.303,1.701-8.96c0.416-1.307,1.25-4.201,2.502-8.686
				c1.161-3.654,1.878-6.033,2.151-7.136c0.15-0.773,0.571-1.47,1.263-2.089c0.632-0.557,1.345-1.013,2.142-1.369
				c0.797-0.355,1.624-0.618,2.48-0.789c0.856-0.17,1.631-0.255,2.322-0.255c1.263,0,2.119,0.237,2.57,0.711
				c0.45,0.476,0.677,1.11,0.677,1.905c0,0.674-0.157,1.624-0.472,2.854c-0.313,1.229-0.673,2.631-1.074,4.203
				c-0.402,1.571-0.997,3.593-1.785,6.064c-0.789,2.472-1.328,4.578-1.617,6.322s-0.653,3.476-1.094,5.196s-0.659,3.284-0.659,4.691
				c0,1.376,0.152,2.47,0.459,3.28c0.306,0.811,0.933,1.216,1.882,1.216c1.102,0,2.325-0.382,3.672-1.147
				c1.346-0.765,2.708-1.69,4.085-2.776s2.723-2.211,4.039-3.374c1.315-1.162,2.479-2.157,3.488-2.983V211.503z M342.707,163.336
				c0-0.71,0.152-1.513,0.459-2.409c0.306-0.896,0.803-1.737,1.491-2.524c0.688-0.788,1.606-1.452,2.754-1.992
				c1.147-0.541,2.578-0.812,4.292-0.812c1.07,0,2.08,0.124,3.029,0.371c0.948,0.247,1.774,0.626,2.479,1.135
				c0.703,0.51,1.262,1.182,1.675,2.016s0.62,1.822,0.62,2.965c0,1.051-0.169,2.069-0.505,3.058
				c-0.337,0.988-0.872,1.869-1.606,2.641c-0.734,0.772-1.66,1.397-2.777,1.877c-1.117,0.479-2.455,0.718-4.016,0.718
				c-2.693,0-4.682-0.641-5.967-1.923C343.35,167.174,342.707,165.468,342.707,163.336z"/>
			<path fill="#EB1D24" d="M398.152,210.999c-2.942,1.714-5.562,3.213-7.859,4.498c-2.299,1.285-4.344,2.356-6.137,3.213
				c-1.793,0.857-3.386,1.5-4.779,1.928c-1.395,0.429-2.659,0.643-3.792,0.643c-2.313,0-4.353-0.703-6.117-2.111
				c-1.766-1.407-3.241-3.435-4.429-6.082c-1.187-2.646-2.077-5.852-2.67-9.615c-0.594-3.764-0.89-8.001-0.89-12.714
				c0-1.836,0.075-3.794,0.228-5.875c0.151-2.08,0.363-4.146,0.637-6.196c-0.925-0.137-1.642-0.264-2.149-0.383
				s-1.047-0.239-1.617-0.358c-0.569-0.119-1.293-0.246-2.171-0.383c-0.878-0.136-2.148-0.306-3.812-0.511
				c-0.739-0.103-1.31-0.297-1.71-0.587c-0.399-0.29-0.692-0.631-0.878-1.022c-0.185-0.392-0.292-0.8-0.323-1.226
				c-0.03-0.427-0.046-0.792-0.046-1.099c0-0.483,0.3-0.851,0.899-1.104s1.369-0.444,2.307-0.572
				c0.938-0.127,1.968-0.197,3.091-0.214c1.123-0.015,2.2-0.007,3.23,0.023c1.029,0.031,1.953,0.054,2.769,0.068
				c0.814,0.017,1.376-0.007,1.684-0.067c0.824-4.12,1.87-8.109,3.139-11.969c1.268-3.86,2.688-7.292,4.261-10.298
				c1.573-3.005,3.291-5.415,5.154-7.231c1.863-1.815,3.818-2.724,5.865-2.724c1.316,0,2.518,0.367,3.605,1.101
				c1.087,0.734,2.013,1.712,2.778,2.935s1.355,2.652,1.769,4.287c0.413,1.637,0.62,3.34,0.62,5.113
				c0,1.467-0.215,3.017-0.644,4.647s-1.011,3.293-1.745,4.983c-0.734,1.691-1.599,3.405-2.594,5.141
				c-0.995,1.736-2.043,3.458-3.145,5.164c0.276-0.102,0.735-0.12,1.379-0.059c0.643,0.063,1.385,0.105,2.227,0.13
				s1.752,0.049,2.731,0.073c0.979,0.024,1.928,0.052,2.846,0.082c0.918,0.031,1.774,0.062,2.57,0.092
				c0.795,0.031,1.453,0.062,1.974,0.092c0.611,0.034,1.056,0.375,1.331,1.021c0.275,0.647,0.413,1.465,0.413,2.452
				c0,1.144-0.308,2.074-0.92,2.793s-1.286,1.077-2.021,1.077h-17.645c-0.892,1.225-1.79,2.426-2.697,3.604
				c-0.906,1.178-1.744,2.241-2.512,3.189c-0.123,1.897-0.229,3.764-0.321,5.6c-0.031,0.796-0.062,1.614-0.092,2.455
				c-0.031,0.843-0.062,1.676-0.092,2.502c-0.031,0.826-0.054,1.622-0.069,2.387c-0.016,0.766-0.022,1.469-0.022,2.111
				c0,1.652,0.153,3.045,0.46,4.177c0.308,1.133,0.753,2.059,1.337,2.776c0.584,0.72,1.298,1.24,2.143,1.561
				c0.845,0.322,1.789,0.482,2.834,0.482c0.643,0,1.446-0.152,2.412-0.459c0.964-0.306,2.021-0.727,3.17-1.262
				c1.148-0.535,2.358-1.171,3.629-1.905c1.271-0.734,2.526-1.538,3.768-2.409c1.24-0.873,2.428-1.791,3.561-2.754
				c1.133-0.965,2.159-1.951,3.079-2.961V210.999z M383.465,152.876c0-0.335-0.023-0.708-0.069-1.12
				c-0.046-0.411-0.146-0.8-0.3-1.165c-0.153-0.366-0.392-0.671-0.714-0.914c-0.323-0.244-0.776-0.366-1.359-0.366
				c-0.799,0-1.605,0.699-2.42,2.097c-0.813,1.396-1.597,3.182-2.35,5.354s-1.46,4.564-2.119,7.177
				c-0.661,2.613-1.268,5.149-1.82,7.609c0.46,0.046,0.922,0.085,1.382,0.12c0.461,0.034,0.937,0.073,1.429,0.119
				c0.922-1.542,1.882-3.213,2.88-5.011c0.998-1.799,1.896-3.567,2.695-5.306c0.799-1.739,1.459-3.364,1.981-4.876
				S383.465,153.843,383.465,152.876z"/>
			<path fill="#EB1D24" d="M410.017,221.28c-2.856,0-5.357-0.529-7.5-1.589c-2.143-1.059-3.929-2.483-5.357-4.274
				c-1.428-1.79-2.5-3.861-3.214-6.213c-0.715-2.352-1.071-4.82-1.071-7.405c0-1.691,0.319-3.707,0.959-6.048
				c0.639-2.341,1.301-4.417,1.985-6.229s1.544-3.541,2.579-5.187c1.035-1.646,2.245-3.096,3.63-4.35
				c1.385-1.253,2.937-2.249,4.656-2.989s3.63-1.11,5.729-1.11c1.715,0,3.308,0.275,4.778,0.825c1.47,0.551,2.75,1.322,3.837,2.315
				s1.938,2.193,2.55,3.599s0.92,2.979,0.92,4.721c0,1.855-0.621,3.936-1.863,6.239c-1.242,2.303-2.691,4.278-4.347,5.924
				c-1.656,1.646-3.626,3.111-5.91,4.397c-2.285,1.287-4.761,2.29-7.429,3.008c0.461,0.808,0.914,1.481,1.359,2.02
				c0.444,0.539,0.897,0.958,1.358,1.257s0.945,0.509,1.451,0.628c0.507,0.12,1.052,0.18,1.636,0.18
				c1.836,0,3.771-0.358,5.807-1.077c2.034-0.718,4.016-1.616,5.943-2.693s3.748-2.251,5.462-3.522s3.167-2.476,4.36-3.613
				l5.921,6.015c-2.692,2.868-5.554,5.404-8.583,7.609c-1.315,0.946-2.73,1.876-4.245,2.79s-3.106,1.726-4.773,2.434
				c-1.668,0.709-3.396,1.276-5.187,1.701C413.669,221.068,411.854,221.28,410.017,221.28z M403.89,199.419
				c1.105,0,2.312-0.276,3.616-0.83c1.306-0.554,2.519-1.265,3.64-2.132c1.121-0.868,2.219-2.035,3.294-3.501
				s1.613-2.678,1.613-3.635c0-1.347-0.254-2.454-0.761-3.321c-0.507-0.868-1.129-1.302-1.866-1.302
				c-1.32,0-2.449,0.239-3.386,0.719c-0.937,0.479-1.72,1.1-2.35,1.862s-1.137,1.63-1.521,2.603
				c-0.385,0.973-0.83,2.178-1.336,3.613c-0.507,1.436-0.791,2.617-0.853,3.545S403.89,198.761,403.89,199.419z"/>
		</g>
		<g>
			<path fill="#E51F2D" d="M71.223-0.021c8.365,0,15.699,1.123,21.999,3.367c6.299,2.246,11.541,5.231,15.725,8.957
				c4.183,3.726,7.333,8.006,9.449,12.842s3.175,9.845,3.175,15.025c0,4.854-0.946,9.657-2.839,14.41
				c-1.893,4.755-4.743,9.138-8.553,13.147c-3.811,4.011-8.616,7.478-14.417,10.398c-5.802,2.923-12.611,4.978-20.43,6.165
				c-0.148,3.617-0.272,6.938-0.371,9.959c-0.05,1.289-0.1,2.577-0.148,3.864c-0.05,1.288-0.087,2.466-0.111,3.53
				c-0.025,1.065-0.05,1.994-0.074,2.787c-0.025,0.794-0.037,1.339-0.037,1.636c-0.1,3.469-0.51,7.065-1.23,10.792
				c-0.72,3.726-1.764,7.365-3.13,10.918c-1.366,3.554-3.031,6.922-4.993,10.105c-1.962,3.182-4.248,5.971-6.856,8.365
				c-2.609,2.393-5.527,4.291-8.758,5.699c-3.229,1.406-6.757,2.109-10.583,2.109c-4.058,0-7.682-1.051-10.873-3.15
				c-3.191-2.102-5.987-4.932-8.387-8.488c-2.4-3.559-4.429-7.662-6.086-12.307c-1.658-4.646-3.006-9.502-4.045-14.567
				s-1.794-10.169-2.264-15.309c-0.471-5.14-0.705-9.983-0.705-14.532c0-7.811,0.718-15.35,2.156-22.617
				c1.438-7.267,3.495-14.077,6.172-20.43c2.676-6.353,5.923-12.148,9.741-17.389c3.816-5.241,8.116-9.74,12.899-13.498
				c4.784-3.757,9.99-6.661,15.616-8.712C58.892,1.006,64.877-0.021,71.223-0.021z M26.57,83.797c0,2.03,0.012,4.768,0.037,8.209
				c0.024,3.442,0.16,7.119,0.408,11.032c0.247,3.913,0.643,7.874,1.188,11.886c0.544,4.012,1.348,7.64,2.412,10.883
				c1.063,3.245,2.399,5.895,4.008,7.95c1.607,2.054,3.624,3.082,6.049,3.082c2.523,0,4.676-0.879,6.457-2.638
				s3.266-4.039,4.453-6.838c1.188-2.8,2.127-5.971,2.82-9.513c0.692-3.543,1.212-7.099,1.559-10.666
				c0.346-3.567,0.568-6.974,0.668-10.22c0.099-3.245,0.148-6.009,0.148-8.288v-3.493c-4.072-1.605-7.274-3.016-9.605-4.231
				s-4.084-2.384-5.262-3.502s-1.926-2.298-2.245-3.538c-0.318-1.241-0.478-2.688-0.478-4.342c0-0.914,0.024-1.816,0.073-2.706
				s0.185-1.677,0.404-2.363c0.221-0.687,0.54-1.245,0.957-1.677c0.416-0.432,0.993-0.648,1.729-0.648
				c0.49,0,0.943,0.104,1.361,0.309c0.416,0.206,0.943,0.489,1.582,0.849c1.617,0.927,3.089,1.687,4.413,2.277
				c1.324,0.592,2.453,1.068,3.386,1.428c1.078,0.413,2.06,0.722,2.942,0.927c0-0.649,0.012-1.938,0.036-3.864
				c0.024-1.925,0.174-4.126,0.449-6.602c0.273-2.475,0.735-5.063,1.383-7.765c0.648-2.7,1.596-5.176,2.844-7.427
				c1.247-2.251,2.868-4.115,4.862-5.59c1.995-1.476,4.465-2.214,7.408-2.214c0.891,0,1.806,0.087,2.745,0.261
				s1.792,0.497,2.56,0.97c0.767,0.473,1.409,1.106,1.929,1.901c0.52,0.796,0.779,1.815,0.779,3.059
				c0,0.352-0.013,0.589-0.037,0.714c-0.026,0.125-0.037,0.289-0.037,0.488L76.44,61.21l-0.666,5.938
				c4.836-0.752,9.006-1.954,12.51-3.607c3.505-1.654,6.404-3.609,8.699-5.865c2.295-2.255,3.997-4.736,5.108-7.443
				c1.11-2.707,1.666-5.487,1.666-8.345c0-2.784-0.532-5.632-1.595-8.54c-1.062-2.908-2.903-5.558-5.523-7.943
				c-2.62-2.387-6.13-4.351-10.529-5.893c-4.4-1.541-9.938-2.313-16.61-2.313c-5.01,0-9.549,0.955-13.615,2.865
				c-4.068,1.91-7.688,4.502-10.862,7.775c-3.176,3.275-5.929,7.096-8.26,11.46c-2.331,4.365-4.254,9.017-5.766,13.952
				c-1.513,4.936-2.629,10.021-3.348,15.255C26.93,73.739,26.57,78.836,26.57,83.797z"/>
			<path fill="#E51F2D" d="M138.381,135.28c-4.62,0-8.662-0.855-12.128-2.568c-3.465-1.712-6.353-4.017-8.662-6.912
				c-2.311-2.896-4.043-6.244-5.198-10.047c-1.154-3.803-1.732-7.795-1.732-11.975c0-2.735,0.517-5.993,1.551-9.778
				c1.033-3.785,2.104-7.143,3.211-10.073c1.106-2.93,2.497-5.726,4.17-8.387c1.674-2.661,3.63-5.005,5.869-7.032
				s4.749-3.638,7.53-4.835c2.78-1.196,5.869-1.795,9.265-1.795c2.773,0,5.35,0.445,7.727,1.335s4.446,2.137,6.204,3.743
				s3.134,3.546,4.124,5.819c0.99,2.272,1.486,4.818,1.486,7.634c0,3-1.004,6.363-3.013,10.088
				c-2.009,3.726-4.351,6.919-7.028,9.579c-2.678,2.661-5.863,5.032-9.558,7.112s-7.697,3.701-12.012,4.862
				c0.745,1.308,1.478,2.396,2.198,3.267c0.719,0.871,1.451,1.549,2.197,2.032c0.744,0.483,1.527,0.822,2.346,1.016
				c0.819,0.193,1.701,0.29,2.646,0.29c2.969,0,6.098-0.58,9.389-1.742c3.29-1.16,6.494-2.612,9.611-4.354
				c3.117-1.741,6.061-3.64,8.832-5.696c2.771-2.056,5.121-4.003,7.051-5.842l9.574,9.725c-4.354,4.638-8.98,8.739-13.879,12.306
				c-2.128,1.529-4.416,3.033-6.865,4.511s-5.022,2.79-7.719,3.936c-2.697,1.146-5.492,2.063-8.387,2.751
				C144.286,134.937,141.353,135.28,138.381,135.28z M128.473,99.932c1.788,0,3.738-0.447,5.849-1.342
				c2.11-0.896,4.071-2.045,5.885-3.448c1.813-1.403,3.588-3.29,5.327-5.66c1.738-2.37,2.607-4.33,2.607-5.878
				c0-2.177-0.41-3.968-1.229-5.371s-1.825-2.104-3.017-2.104c-2.137,0-3.962,0.388-5.477,1.162s-2.78,1.777-3.799,3.012
				c-1.019,1.233-1.838,2.636-2.459,4.208c-0.621,1.573-1.341,3.521-2.16,5.843c-0.819,2.321-1.279,4.232-1.379,5.732
				S128.473,98.866,128.473,99.932z"/>
			<path fill="#E51F2D" d="M200.511,121.03c4.978,0,9.519-0.479,13.62-1.437c4.101-0.958,7.821-2.251,11.161-3.881
				c3.34-1.628,6.357-3.532,9.055-5.712c2.696-2.18,5.133-4.515,7.311-7.006l0.816,16.454c-1.584,2.059-3.501,4.051-5.752,5.978
				c-2.252,1.926-4.713,3.614-7.385,5.065c-2.672,1.452-5.48,2.612-8.424,3.482c-2.944,0.871-5.852,1.306-8.721,1.306
				c-0.345,0-0.776-0.054-1.294-0.16c-0.517-0.106-1.417-0.293-2.698-0.56c-1.283-0.268-3.118-0.627-5.509-1.081
				c-2.391-0.453-5.631-1.001-9.723-1.641v1.341c0,9.042-0.778,17.252-2.332,24.631c-1.554,7.377-3.631,13.674-6.23,18.891
				c-2.601,5.215-5.582,9.24-8.944,12.072c-3.363,2.832-6.855,4.248-10.474,4.248c-2.82,0-5.17-0.697-7.051-2.092
				c-1.88-1.395-3.377-3.275-4.49-5.641c-1.113-2.367-1.904-5.131-2.375-8.293c-0.47-3.164-0.705-6.514-0.705-10.051
				c0-2.055,0.322-4.373,0.965-6.953c0.644-2.582,1.51-5.287,2.598-8.117c1.089-2.834,2.313-5.715,3.674-8.646
				c1.361-2.932,2.758-5.777,4.193-8.532c3.364-6.414,7.199-13.029,11.504-19.846c0.551-3.736,1.114-7.568,1.691-11.496
				c0.576-3.928,1.308-7.782,2.196-11.565c0.888-3.781,2.258-7.747,4.109-11.897c1.853-4.15,3.832-7.479,5.938-9.984
				c2.106-2.505,4.63-4.494,7.573-5.969c2.942-1.473,6.495-2.21,10.656-2.21c3.014,0,5.83,0.412,8.45,1.232
				c2.618,0.822,4.917,2.155,6.895,3.998c1.976,1.844,3.533,4.222,4.67,7.135c1.136,2.914,1.704,6.488,1.704,10.723
				c0,4.503-0.494,8.023-1.481,10.563c-1.482,3.785-3.396,7.065-5.742,9.844c-2.347,2.779-5.137,5.377-8.372,7.796
				c-3.236,2.419-7.075,4.586-11.521,6.502L200.511,121.03z M164.543,167.833c0,0.393,0.086,1.033,0.26,1.918
				c0.173,0.887,0.457,1.771,0.854,2.658c0.396,0.885,0.915,1.674,1.559,2.361c0.643,0.689,1.435,1.033,2.375,1.033
				c0.841,0,1.533-0.455,2.078-1.365c0.544-0.91,0.989-2.129,1.336-3.654c0.346-1.525,0.594-3.248,0.742-5.166
				c0.148-1.92,0.265-3.889,0.35-5.904c0.084-2.02,0.14-3.986,0.167-5.904c0.025-1.922,0.091-3.643,0.195-5.168
				c0.157-2.658,0.274-4.91,0.353-6.754c0.079-1.846,0.145-3.385,0.197-4.613c0.049-1.382,0.099-2.581,0.148-3.595
				c-0.94,1.629-1.855,3.519-2.746,5.667s-1.732,4.383-2.523,6.705c-0.792,2.32-1.51,4.643-2.152,6.963
				c-0.644,2.322-1.2,4.482-1.67,6.484c-0.471,1.998-0.842,3.727-1.113,5.186C164.679,166.139,164.543,167.19,164.543,167.833z
				 M191.102,113.773c2.971-1.438,5.545-3.042,7.724-4.814c2.078-1.771,3.91-3.664,5.494-5.677c0.645-0.095,2.179-2.298,4.604-6.609
				c1.633-3.688,2.673-6.514,3.119-8.479c0.247-1.053,0.408-2.287,0.482-3.7s-0.074-2.743-0.442-3.988
				c-0.37-1.246-1.012-2.312-1.923-3.197c-0.913-0.886-2.183-1.329-3.809-1.329c-1.832,0-3.44,0.492-4.828,1.473
				c-1.387,0.982-2.587,2.312-3.602,3.988s-1.856,3.664-2.524,5.963c-0.669,2.3-1.461,5.138-2.378,8.515
				c-0.916,3.377-1.464,6.49-1.646,9.341S191.102,110.947,191.102,113.773z"/>
			<path fill="#E51F2D" d="M264.487,121.03c4.978,0,9.519-0.479,13.62-1.437c4.101-0.958,7.821-2.251,11.161-3.881
				c3.34-1.628,6.357-3.532,9.055-5.712c2.696-2.18,5.133-4.515,7.311-7.006l0.816,16.454c-1.584,2.059-3.501,4.051-5.752,5.978
				c-2.252,1.926-4.713,3.614-7.385,5.065c-2.672,1.452-5.48,2.612-8.424,3.482c-2.944,0.871-5.852,1.306-8.721,1.306
				c-0.345,0-0.776-0.054-1.294-0.16c-0.517-0.106-1.417-0.293-2.698-0.56c-1.283-0.268-3.118-0.627-5.509-1.081
				c-2.391-0.453-5.631-1.001-9.723-1.641v1.341c0,9.042-0.778,17.252-2.332,24.631c-1.554,7.377-3.631,13.674-6.23,18.891
				c-2.601,5.215-5.582,9.24-8.944,12.072c-3.363,2.832-6.855,4.248-10.474,4.248c-2.82,0-5.17-0.697-7.051-2.092
				c-1.88-1.395-3.377-3.275-4.49-5.641c-1.113-2.367-1.904-5.131-2.375-8.293c-0.47-3.164-0.705-6.514-0.705-10.051
				c0-2.055,0.322-4.373,0.965-6.953c0.644-2.582,1.51-5.287,2.598-8.117c1.089-2.834,2.313-5.715,3.674-8.646
				c1.361-2.932,2.758-5.777,4.193-8.532c3.364-6.414,7.199-13.029,11.504-19.846c0.551-3.736,1.114-7.568,1.691-11.496
				c0.576-3.928,1.308-7.782,2.196-11.565c0.888-3.781,2.258-7.747,4.109-11.897c1.853-4.15,3.832-7.479,5.938-9.984
				c2.106-2.505,4.63-4.494,7.573-5.969c2.942-1.473,6.495-2.21,10.656-2.21c3.014,0,5.83,0.412,8.45,1.232
				c2.618,0.822,4.917,2.155,6.895,3.998c1.976,1.844,3.533,4.222,4.67,7.135c1.136,2.914,1.704,6.488,1.704,10.723
				c0,4.503-0.494,8.023-1.481,10.563c-1.482,3.785-3.396,7.065-5.742,9.844c-2.347,2.779-5.137,5.377-8.372,7.796
				c-3.236,2.419-7.075,4.586-11.521,6.502L264.487,121.03z M228.52,167.833c0,0.393,0.086,1.033,0.26,1.918
				c0.173,0.887,0.457,1.771,0.854,2.658c0.396,0.885,0.915,1.674,1.559,2.361c0.643,0.689,1.435,1.033,2.375,1.033
				c0.841,0,1.533-0.455,2.078-1.365c0.544-0.91,0.989-2.129,1.336-3.654c0.346-1.525,0.594-3.248,0.742-5.166
				c0.148-1.92,0.265-3.889,0.35-5.904c0.084-2.02,0.14-3.986,0.167-5.904c0.025-1.922,0.091-3.643,0.195-5.168
				c0.157-2.658,0.274-4.91,0.353-6.754c0.079-1.846,0.145-3.385,0.197-4.613c0.049-1.382,0.099-2.581,0.148-3.595
				c-0.94,1.629-1.855,3.519-2.746,5.667s-1.732,4.383-2.523,6.705c-0.792,2.32-1.51,4.643-2.152,6.963
				c-0.644,2.322-1.2,4.482-1.67,6.484c-0.471,1.998-0.842,3.727-1.113,5.186C228.655,166.139,228.52,167.19,228.52,167.833z
				 M255.078,113.773c2.971-1.438,5.545-3.042,7.724-4.814c2.078-1.771,3.91-3.664,5.494-5.677c0.645-0.095,2.179-2.298,4.604-6.609
				c1.633-3.688,2.673-6.514,3.119-8.479c0.247-1.053,0.408-2.287,0.482-3.7s-0.074-2.743-0.442-3.988
				c-0.37-1.246-1.012-2.312-1.923-3.197c-0.913-0.886-2.183-1.329-3.809-1.329c-1.832,0-3.44,0.492-4.828,1.473
				c-1.387,0.982-2.587,2.312-3.602,3.988s-1.856,3.664-2.524,5.963c-0.669,2.3-1.461,5.138-2.378,8.515
				c-0.916,3.377-1.464,6.49-1.646,9.341S255.078,110.947,255.078,113.773z"/>
			<path fill="#E51F2D" d="M322.295,135.28c-4.62,0-8.662-0.855-12.128-2.568c-3.465-1.712-6.353-4.017-8.662-6.912
				c-2.311-2.896-4.043-6.244-5.198-10.047c-1.154-3.803-1.732-7.795-1.732-11.975c0-2.735,0.517-5.993,1.551-9.778
				c1.033-3.785,2.104-7.143,3.211-10.073c1.106-2.93,2.497-5.726,4.17-8.387c1.674-2.661,3.63-5.005,5.869-7.032
				s4.749-3.638,7.53-4.835c2.78-1.196,5.869-1.795,9.265-1.795c2.773,0,5.35,0.445,7.727,1.335s4.446,2.137,6.204,3.743
				s3.134,3.546,4.124,5.819c0.99,2.272,1.486,4.818,1.486,7.634c0,3-1.004,6.363-3.013,10.088
				c-2.009,3.726-4.351,6.919-7.028,9.579c-2.678,2.661-5.863,5.032-9.558,7.112s-7.697,3.701-12.012,4.862
				c0.745,1.308,1.478,2.396,2.198,3.267c0.719,0.871,1.451,1.549,2.197,2.032c0.744,0.483,1.527,0.822,2.346,1.016
				c0.819,0.193,1.701,0.29,2.646,0.29c2.969,0,6.098-0.58,9.389-1.742c3.29-1.16,6.494-2.612,9.611-4.354
				c3.117-1.741,6.061-3.64,8.832-5.696c2.771-2.056,5.121-4.003,7.051-5.842l9.574,9.725c-4.354,4.638-8.98,8.739-13.879,12.306
				c-2.128,1.529-4.416,3.033-6.865,4.511s-5.022,2.79-7.719,3.936c-2.697,1.146-5.492,2.063-8.387,2.751
				C328.2,134.937,325.267,135.28,322.295,135.28z M312.387,99.932c1.788,0,3.738-0.447,5.849-1.342
				c2.11-0.896,4.071-2.045,5.885-3.448c1.813-1.403,3.588-3.29,5.327-5.66c1.738-2.37,2.607-4.33,2.607-5.878
				c0-2.177-0.41-3.968-1.229-5.371s-1.825-2.104-3.017-2.104c-2.137,0-3.962,0.388-5.477,1.162s-2.78,1.777-3.799,3.012
				c-1.019,1.233-1.838,2.636-2.459,4.208c-0.621,1.573-1.341,3.521-2.16,5.843c-0.819,2.321-1.279,4.232-1.379,5.732
				S312.387,98.866,312.387,99.932z"/>
			<path fill="#E51F2D" d="M353.355,119.769c0-2.177,0.123-4.713,0.371-7.607c0.247-2.895,0.581-5.949,1.002-9.166
				c0.42-3.216,0.915-6.494,1.484-9.834c0.568-3.34,1.299-6.902,2.189-10.688s1.657-6.939,2.301-9.463
				c0.643-2.523,1.286-4.602,1.93-6.234c0.396-1.088,0.791-1.954,1.188-2.598c0.396-0.643,0.854-1.15,1.373-1.521
				s1.162-0.618,1.93-0.742c0.767-0.123,1.719-0.186,2.857-0.186c1.286,0,2.288,0.063,3.006,0.186
				c0.717,0.124,1.249,0.421,1.596,0.891c0.346,0.471,0.557,1.15,0.631,2.041s0.111,2.104,0.111,3.637
				c0,1.831-0.124,4.429-0.371,7.793c-0.248,3.365-0.322,6.309-0.223,8.832h0.816c0.989-1.979,2.227-4.576,3.711-7.793
				c1.484-3.216,3.043-5.888,4.676-8.016c1.633-2.127,3.488-3.921,5.566-5.381c2.078-1.459,4.478-2.189,7.199-2.189
				c0.939,0,1.855,0.161,2.746,0.482c0.891,0.322,1.67,0.779,2.338,1.373s1.199,1.324,1.596,2.189
				c0.396,0.866,0.594,1.844,0.594,2.932c0,0.842-0.124,2.017-0.371,3.525c-0.248,1.51-0.644,3.477-1.188,5.9
				c-0.545,2.425-0.94,4.416-1.188,5.975c-0.248,1.559-0.371,2.857-0.371,3.896c0,1.781,0.173,3.266,0.52,4.453
				c0.346,1.188,0.804,2.141,1.373,2.857c0.568,0.718,1.212,1.225,1.93,1.521c0.717,0.297,1.472,0.445,2.264,0.445
				c2.227,0,4.527-0.494,6.902-1.484c2.375-0.989,4.552-2.103,6.531-3.34c2.325-1.435,4.602-3.067,6.828-4.898l-1.113,17.367
				c-1.287,0.842-2.746,1.781-4.379,2.82s-3.377,2.017-5.232,2.932c-1.855,0.916-3.785,1.683-5.789,2.301
				c-2.004,0.619-4.045,0.928-6.123,0.928c-3.711,0-6.705-0.754-8.98-2.264c-2.276-1.509-4.082-3.488-5.418-5.938
				s-2.326-5.195-2.969-8.238c-0.644-3.043-1.163-6.123-1.559-9.24h-1.188l-13.285,37.035c-0.693,1.93-1.349,3.525-1.967,4.787
				c-0.619,1.262-1.25,2.289-1.893,3.08c-0.644,0.792-1.336,1.349-2.078,1.67c-0.742,0.322-1.559,0.482-2.449,0.482
				c-2.029,0-3.662-0.433-4.898-1.299c-1.237-0.865-2.189-2.028-2.857-3.488c-0.668-1.459-1.113-3.117-1.336-4.973
				S353.355,121.748,353.355,119.769z"/>
		</g>
	</g>
</g>
<g id="Layer_3">
	<g>
	</g>
	<g>
	</g>
	<g>
	</g>
	<g>
	</g>
	<g>
	</g>
	<g>
	</g>
</g>
</svg>
